<svg xmlns="http://www.w3.org/2000/svg" width="1600" height="700" viewBox="0 0 1600 700">
<style>
text { font-family: sans-serif; fill: #111; }
.title { font-size: 18px; font-weight: 600; }
.axis { font-size: 12px; }
.tick { font-size: 11px; }
</style>
<text x="800.0" y="26" text-anchor="middle" class="title">Energy by Rust Nightly (Violin + Box)</text>
<line x1="110" y1="70" x2="110" y2="550" stroke="#333" stroke-width="1.3"/>
<line x1="110" y1="550" x2="1560" y2="550" stroke="#333" stroke-width="1.3"/>
<text x="22" y="310.0" transform="rotate(-90 22 310.0)" text-anchor="middle" class="axis">Energy (Joules)</text>
<line x1="110" y1="550.0" x2="1560" y2="550.0" stroke="#ddd" stroke-width="1"/>
<text x="102" y="554.0" text-anchor="end" class="tick">1368.8</text>
<line x1="110" y1="454.0" x2="1560" y2="454.0" stroke="#ddd" stroke-width="1"/>
<text x="102" y="458.0" text-anchor="end" class="tick">1590.5</text>
<line x1="110" y1="358.0" x2="1560" y2="358.0" stroke="#ddd" stroke-width="1"/>
<text x="102" y="362.0" text-anchor="end" class="tick">1812.2</text>
<line x1="110" y1="262.0" x2="1560" y2="262.0" stroke="#ddd" stroke-width="1"/>
<text x="102" y="266.0" text-anchor="end" class="tick">2033.8</text>
<line x1="110" y1="166.0" x2="1560" y2="166.0" stroke="#ddd" stroke-width="1"/>
<text x="102" y="170.0" text-anchor="end" class="tick">2255.5</text>
<line x1="110" y1="70.0" x2="1560" y2="70.0" stroke="#ddd" stroke-width="1"/>
<text x="102" y="74.0" text-anchor="end" class="tick">2477.1</text>
<line x1="158.3" y1="550" x2="158.3" y2="555" stroke="#333" stroke-width="1"/>
<text x="158.3" y="574" text-anchor="end" transform="rotate(-35 158.3 574)" class="tick">nightly-2020-01-30</text>
<line x1="255.0" y1="550" x2="255.0" y2="555" stroke="#333" stroke-width="1"/>
<text x="255.0" y="574" text-anchor="end" transform="rotate(-35 255.0 574)" class="tick">nightly-2020-06-01</text>
<line x1="351.7" y1="550" x2="351.7" y2="555" stroke="#333" stroke-width="1"/>
<text x="351.7" y="574" text-anchor="end" transform="rotate(-35 351.7 574)" class="tick">nightly-2021-03-01</text>
<line x1="448.3" y1="550" x2="448.3" y2="555" stroke="#333" stroke-width="1"/>
<text x="448.3" y="574" text-anchor="end" transform="rotate(-35 448.3 574)" class="tick">nightly-2021-06-01</text>
<line x1="545.0" y1="550" x2="545.0" y2="555" stroke="#333" stroke-width="1"/>
<text x="545.0" y="574" text-anchor="end" transform="rotate(-35 545.0 574)" class="tick">nightly-2021-08-01</text>
<line x1="641.7" y1="550" x2="641.7" y2="555" stroke="#333" stroke-width="1"/>
<text x="641.7" y="574" text-anchor="end" transform="rotate(-35 641.7 574)" class="tick">nightly-2022-09-01</text>
<line x1="738.3" y1="550" x2="738.3" y2="555" stroke="#333" stroke-width="1"/>
<text x="738.3" y="574" text-anchor="end" transform="rotate(-35 738.3 574)" class="tick">nightly-2023-01-01</text>
<line x1="835.0" y1="550" x2="835.0" y2="555" stroke="#333" stroke-width="1"/>
<text x="835.0" y="574" text-anchor="end" transform="rotate(-35 835.0 574)" class="tick">nightly-2023-06-01</text>
<line x1="931.7" y1="550" x2="931.7" y2="555" stroke="#333" stroke-width="1"/>
<text x="931.7" y="574" text-anchor="end" transform="rotate(-35 931.7 574)" class="tick">nightly-2024-06-01</text>
<line x1="1028.3" y1="550" x2="1028.3" y2="555" stroke="#333" stroke-width="1"/>
<text x="1028.3" y="574" text-anchor="end" transform="rotate(-35 1028.3 574)" class="tick">nightly-2024-12-01</text>
<line x1="1125.0" y1="550" x2="1125.0" y2="555" stroke="#333" stroke-width="1"/>
<text x="1125.0" y="574" text-anchor="end" transform="rotate(-35 1125.0 574)" class="tick">nightly-2025-06-01</text>
<line x1="1221.7" y1="550" x2="1221.7" y2="555" stroke="#333" stroke-width="1"/>
<text x="1221.7" y="574" text-anchor="end" transform="rotate(-35 1221.7 574)" class="tick">nightly-2025-09-01</text>
<line x1="1318.3" y1="550" x2="1318.3" y2="555" stroke="#333" stroke-width="1"/>
<text x="1318.3" y="574" text-anchor="end" transform="rotate(-35 1318.3 574)" class="tick">nightly-2025-12-01</text>
<line x1="1415.0" y1="550" x2="1415.0" y2="555" stroke="#333" stroke-width="1"/>
<text x="1415.0" y="574" text-anchor="end" transform="rotate(-35 1415.0 574)" class="tick">nightly-2026-01-01</text>
<line x1="1511.7" y1="550" x2="1511.7" y2="555" stroke="#333" stroke-width="1"/>
<text x="1511.7" y="574" text-anchor="end" transform="rotate(-35 1511.7 574)" class="tick">nightly-2026-02-24</text>
<polygon points="158.3,550.0 158.3,545.2 158.3,540.4 158.3,535.6 158.3,530.8 158.3,526.0 158.3,521.2 158.3,516.4 158.3,511.6 158.3,506.8 158.3,502.0 158.3,497.2 158.3,492.4 158.3,487.6 158.3,482.8 158.3,478.0 158.3,473.2 158.3,468.4 158.3,463.6 158.3,458.8 158.3,454.0 158.3,449.2 158.3,444.4 158.3,439.6 158.3,434.8 158.3,430.0 158.3,425.2 158.3,420.4 158.3,415.6 158.3,410.8 158.3,406.0 158.3,401.2 158.3,396.4 158.3,391.6 158.3,386.8 158.3,382.0 158.3,377.2 158.3,372.4 158.3,367.6 158.3,362.8 158.3,358.0 158.3,353.2 158.3,348.4 158.3,343.6 158.3,338.8 158.3,334.0 158.3,329.2 158.3,324.4 158.3,319.6 158.3,314.8 158.3,310.0 158.3,305.2 158.3,300.4 158.3,295.6 158.3,290.8 158.3,286.0 158.3,281.2 158.3,276.4 158.3,271.6 158.3,266.8 158.3,262.0 158.3,257.2 158.3,252.4 158.3,247.6 158.3,242.8 158.2,238.0 158.1,233.2 158.0,228.4 157.7,223.6 157.4,218.8 157.0,214.0 156.4,209.2 155.7,204.4 155.0,199.6 154.1,194.8 153.1,190.0 152.2,185.2 151.3,180.4 150.4,175.6 149.7,170.8 149.2,166.0 148.9,161.2 148.9,156.4 149.0,151.6 149.4,146.8 150.0,142.0 150.7,137.2 151.5,132.4 152.2,127.6 152.9,122.8 153.5,118.0 154.0,113.2 154.5,108.4 154.9,103.6 155.3,98.8 155.7,94.0 156.1,89.2 156.6,84.4 157.0,79.6 157.3,74.8 157.6,70.0 159.1,70.0 159.4,74.8 159.7,79.6 160.1,84.4 160.5,89.2 161.0,94.0 161.4,98.8 161.8,103.6 162.2,108.4 162.7,113.2 163.2,118.0 163.8,122.8 164.5,127.6 165.2,132.4 166.0,137.2 166.7,142.0 167.2,146.8 167.6,151.6 167.8,156.4 167.7,161.2 167.4,166.0 166.9,170.8 166.2,175.6 165.4,180.4 164.5,185.2 163.5,190.0 162.6,194.8 161.7,199.6 160.9,204.4 160.2,209.2 159.7,214.0 159.3,218.8 158.9,223.6 158.7,228.4 158.6,233.2 158.5,238.0 158.4,242.8 158.4,247.6 158.4,252.4 158.3,257.2 158.3,262.0 158.3,266.8 158.3,271.6 158.3,276.4 158.3,281.2 158.3,286.0 158.3,290.8 158.3,295.6 158.3,300.4 158.3,305.2 158.3,310.0 158.3,314.8 158.3,319.6 158.3,324.4 158.3,329.2 158.3,334.0 158.3,338.8 158.3,343.6 158.3,348.4 158.3,353.2 158.3,358.0 158.3,362.8 158.3,367.6 158.3,372.4 158.3,377.2 158.3,382.0 158.3,386.8 158.3,391.6 158.3,396.4 158.3,401.2 158.3,406.0 158.3,410.8 158.3,415.6 158.3,420.4 158.3,425.2 158.3,430.0 158.3,434.8 158.3,439.6 158.3,444.4 158.3,449.2 158.3,454.0 158.3,458.8 158.3,463.6 158.3,468.4 158.3,473.2 158.3,478.0 158.3,482.8 158.3,487.6 158.3,492.4 158.3,497.2 158.3,502.0 158.3,506.8 158.3,511.6 158.3,516.4 158.3,521.2 158.3,526.0 158.3,530.8 158.3,535.6 158.3,540.4 158.3,545.2 158.3,550.0" fill="#fdae6b" fill-opacity="0.60" stroke="#b15928" stroke-width="1.2"/>
<line x1="158.3" y1="103.1" x2="158.3" y2="140.7" stroke="#333" stroke-width="1.5"/>
<line x1="158.3" y1="166.2" x2="158.3" y2="185.9" stroke="#333" stroke-width="1.5"/>
<line x1="140.0" y1="103.1" x2="176.7" y2="103.1" stroke="#333" stroke-width="1.5"/>
<line x1="140.0" y1="185.9" x2="176.7" y2="185.9" stroke="#333" stroke-width="1.5"/>
<rect x="140.0" y="140.7" width="36.7" height="25.5" fill="#9ecae1" fill-opacity="0.92" stroke="#1f4e79" stroke-width="1.5"/>
<line x1="140.0" y1="153.9" x2="176.7" y2="153.9" stroke="#111" stroke-width="2"/>
<polygon points="255.0,550.0 255.0,545.2 255.0,540.4 255.0,535.6 255.0,530.8 255.0,526.0 255.0,521.2 255.0,516.4 255.0,511.6 255.0,506.8 255.0,502.0 255.0,497.2 255.0,492.4 255.0,487.6 255.0,482.8 255.0,478.0 255.0,473.2 255.0,468.4 255.0,463.6 255.0,458.8 255.0,454.0 255.0,449.2 255.0,444.4 255.0,439.6 255.0,434.8 255.0,430.0 255.0,425.2 255.0,420.4 255.0,415.6 255.0,410.8 255.0,406.0 255.0,401.2 255.0,396.4 255.0,391.6 255.0,386.8 255.0,382.0 255.0,377.2 255.0,372.4 255.0,367.6 255.0,362.8 255.0,358.0 255.0,353.2 255.0,348.4 255.0,343.6 255.0,338.8 255.0,334.0 255.0,329.2 255.0,324.4 255.0,319.6 255.0,314.8 255.0,310.0 255.0,305.2 255.0,300.4 255.0,295.6 255.0,290.8 255.0,286.0 255.0,281.2 255.0,276.4 255.0,271.6 255.0,266.8 255.0,262.0 255.0,257.2 255.0,252.4 255.0,247.6 255.0,242.8 255.0,238.0 254.9,233.2 254.9,228.4 254.8,223.6 254.7,218.8 254.4,214.0 254.2,209.2 253.8,204.4 253.4,199.6 252.9,194.8 252.5,190.0 252.0,185.2 251.6,180.4 251.3,175.6 251.0,170.8 250.6,166.0 250.2,161.2 249.7,156.4 249.0,151.6 248.1,146.8 247.1,142.0 246.2,137.2 245.3,132.4 244.7,127.6 244.4,122.8 244.4,118.0 244.9,113.2 245.7,108.4 246.9,103.6 248.1,98.8 249.5,94.0 250.7,89.2 251.9,84.4 252.8,79.6 253.6,74.8 254.1,70.0 255.9,70.0 256.4,74.8 257.2,79.6 258.1,84.4 259.3,89.2 260.5,94.0 261.9,98.8 263.1,103.6 264.3,108.4 265.1,113.2 265.6,118.0 265.6,122.8 265.3,127.6 264.7,132.4 263.8,137.2 262.9,142.0 261.9,146.8 261.0,151.6 260.3,156.4 259.8,161.2 259.4,166.0 259.0,170.8 258.7,175.6 258.4,180.4 258.0,185.2 257.5,190.0 257.1,194.8 256.6,199.6 256.2,204.4 255.8,209.2 255.6,214.0 255.3,218.8 255.2,223.6 255.1,228.4 255.1,233.2 255.0,238.0 255.0,242.8 255.0,247.6 255.0,252.4 255.0,257.2 255.0,262.0 255.0,266.8 255.0,271.6 255.0,276.4 255.0,281.2 255.0,286.0 255.0,290.8 255.0,295.6 255.0,300.4 255.0,305.2 255.0,310.0 255.0,314.8 255.0,319.6 255.0,324.4 255.0,329.2 255.0,334.0 255.0,338.8 255.0,343.6 255.0,348.4 255.0,353.2 255.0,358.0 255.0,362.8 255.0,367.6 255.0,372.4 255.0,377.2 255.0,382.0 255.0,386.8 255.0,391.6 255.0,396.4 255.0,401.2 255.0,406.0 255.0,410.8 255.0,415.6 255.0,420.4 255.0,425.2 255.0,430.0 255.0,434.8 255.0,439.6 255.0,444.4 255.0,449.2 255.0,454.0 255.0,458.8 255.0,463.6 255.0,468.4 255.0,473.2 255.0,478.0 255.0,482.8 255.0,487.6 255.0,492.4 255.0,497.2 255.0,502.0 255.0,506.8 255.0,511.6 255.0,516.4 255.0,521.2 255.0,526.0 255.0,530.8 255.0,535.6 255.0,540.4 255.0,545.2 255.0,550.0" fill="#fdae6b" fill-opacity="0.60" stroke="#b15928" stroke-width="1.2"/>
<line x1="255.0" y1="110.5" x2="255.0" y2="111.6" stroke="#333" stroke-width="1.5"/>
<line x1="255.0" y1="136.2" x2="255.0" y2="176.0" stroke="#333" stroke-width="1.5"/>
<line x1="236.6" y1="110.5" x2="273.4" y2="110.5" stroke="#333" stroke-width="1.5"/>
<line x1="236.6" y1="176.0" x2="273.4" y2="176.0" stroke="#333" stroke-width="1.5"/>
<rect x="236.6" y="111.6" width="36.7" height="24.6" fill="#9ecae1" fill-opacity="0.92" stroke="#1f4e79" stroke-width="1.5"/>
<line x1="236.6" y1="126.3" x2="273.4" y2="126.3" stroke="#111" stroke-width="2"/>
<polygon points="351.7,550.0 351.7,545.2 351.7,540.4 351.7,535.6 351.7,530.8 351.7,526.0 351.7,521.2 351.7,516.4 351.7,511.6 351.7,506.8 351.7,502.0 351.7,497.2 351.7,492.4 351.7,487.6 351.7,482.8 351.7,478.0 351.7,473.2 351.7,468.4 351.7,463.6 351.7,458.8 351.7,454.0 351.7,449.2 351.7,444.4 351.7,439.6 351.7,434.8 351.7,430.0 351.7,425.2 351.7,420.4 351.7,415.6 351.7,410.8 351.7,406.0 351.7,401.2 351.7,396.4 351.7,391.6 351.7,386.8 351.7,382.0 351.7,377.2 351.7,372.4 351.7,367.6 351.7,362.8 351.7,358.0 351.7,353.2 351.7,348.4 351.7,343.6 351.7,338.8 351.7,334.0 351.7,329.2 351.7,324.4 351.7,319.6 351.7,314.8 351.7,310.0 351.7,305.2 351.6,300.4 351.6,295.6 351.6,290.8 351.5,286.0 351.4,281.2 351.3,276.4 351.1,271.6 350.8,266.8 350.4,262.0 349.9,257.2 349.4,252.4 348.7,247.6 348.0,242.8 347.3,238.0 346.6,233.2 345.9,228.4 345.4,223.6 344.9,218.8 344.5,214.0 344.3,209.2 344.1,204.4 344.0,199.6 343.9,194.8 343.9,190.0 343.9,185.2 344.1,180.4 344.3,175.6 344.7,170.8 345.1,166.0 345.6,161.2 346.1,156.4 346.7,151.6 347.3,146.8 347.9,142.0 348.5,137.2 349.1,132.4 349.6,127.6 350.1,122.8 350.5,118.0 350.8,113.2 351.1,108.4 351.3,103.6 351.4,98.8 351.5,94.0 351.6,89.2 351.6,84.4 351.6,79.6 351.7,74.8 351.7,70.0 351.7,70.0 351.7,74.8 351.7,79.6 351.7,84.4 351.8,89.2 351.8,94.0 351.9,98.8 352.1,103.6 352.3,108.4 352.5,113.2 352.8,118.0 353.2,122.8 353.7,127.6 354.2,132.4 354.8,137.2 355.4,142.0 356.0,146.8 356.6,151.6 357.2,156.4 357.8,161.2 358.3,166.0 358.7,170.8 359.0,175.6 359.2,180.4 359.4,185.2 359.5,190.0 359.5,194.8 359.4,199.6 359.3,204.4 359.1,209.2 358.8,214.0 358.4,218.8 358.0,223.6 357.4,228.4 356.8,233.2 356.1,238.0 355.3,242.8 354.6,247.6 354.0,252.4 353.4,257.2 352.9,262.0 352.5,266.8 352.2,271.6 352.0,276.4 351.9,281.2 351.8,286.0 351.7,290.8 351.7,295.6 351.7,300.4 351.7,305.2 351.7,310.0 351.7,314.8 351.7,319.6 351.7,324.4 351.7,329.2 351.7,334.0 351.7,338.8 351.7,343.6 351.7,348.4 351.7,353.2 351.7,358.0 351.7,362.8 351.7,367.6 351.7,372.4 351.7,377.2 351.7,382.0 351.7,386.8 351.7,391.6 351.7,396.4 351.7,401.2 351.7,406.0 351.7,410.8 351.7,415.6 351.7,420.4 351.7,425.2 351.7,430.0 351.7,434.8 351.7,439.6 351.7,444.4 351.7,449.2 351.7,454.0 351.7,458.8 351.7,463.6 351.7,468.4 351.7,473.2 351.7,478.0 351.7,482.8 351.7,487.6 351.7,492.4 351.7,497.2 351.7,502.0 351.7,506.8 351.7,511.6 351.7,516.4 351.7,521.2 351.7,526.0 351.7,530.8 351.7,535.6 351.7,540.4 351.7,545.2 351.7,550.0" fill="#fdae6b" fill-opacity="0.60" stroke="#b15928" stroke-width="1.2"/>
<line x1="351.7" y1="149.8" x2="351.7" y2="181.8" stroke="#333" stroke-width="1.5"/>
<line x1="351.7" y1="217.2" x2="351.7" y2="225.6" stroke="#333" stroke-width="1.5"/>
<line x1="333.3" y1="149.8" x2="370.0" y2="149.8" stroke="#333" stroke-width="1.5"/>
<line x1="333.3" y1="225.6" x2="370.0" y2="225.6" stroke="#333" stroke-width="1.5"/>
<rect x="333.3" y="181.8" width="36.7" height="35.5" fill="#9ecae1" fill-opacity="0.92" stroke="#1f4e79" stroke-width="1.5"/>
<line x1="333.3" y1="182.7" x2="370.0" y2="182.7" stroke="#111" stroke-width="2"/>
<polygon points="448.3,550.0 448.3,545.2 448.3,540.4 448.3,535.6 448.3,530.8 448.3,526.0 448.3,521.2 448.3,516.4 448.3,511.6 448.3,506.8 448.3,502.0 448.3,497.2 448.3,492.4 448.3,487.6 448.3,482.8 448.3,478.0 448.3,473.2 448.3,468.4 448.3,463.6 448.3,458.8 448.3,454.0 448.3,449.2 448.3,444.4 448.3,439.6 448.3,434.8 448.3,430.0 448.3,425.2 448.3,420.4 448.3,415.6 448.3,410.8 448.3,406.0 448.3,401.2 448.3,396.4 448.3,391.6 448.3,386.8 448.3,382.0 448.2,377.2 448.1,372.4 448.0,367.6 447.9,362.8 447.7,358.0 447.5,353.2 447.2,348.4 446.9,343.6 446.5,338.8 446.1,334.0 445.5,329.2 445.0,324.4 444.5,319.6 443.9,314.8 443.4,310.0 442.9,305.2 442.5,300.4 442.2,295.6 442.0,290.8 441.9,286.0 441.8,281.2 441.9,276.4 442.0,271.6 442.1,266.8 442.3,262.0 442.5,257.2 442.7,252.4 442.9,247.6 443.1,242.8 443.3,238.0 443.5,233.2 443.7,228.4 444.0,223.6 444.3,218.8 444.5,214.0 444.8,209.2 445.2,204.4 445.5,199.6 445.8,194.8 446.2,190.0 446.5,185.2 446.8,180.4 447.1,175.6 447.3,170.8 447.5,166.0 447.7,161.2 447.9,156.4 448.0,151.6 448.1,146.8 448.2,142.0 448.2,137.2 448.3,132.4 448.3,127.6 448.3,122.8 448.3,118.0 448.3,113.2 448.3,108.4 448.3,103.6 448.3,98.8 448.3,94.0 448.3,89.2 448.3,84.4 448.3,79.6 448.3,74.8 448.3,70.0 448.3,70.0 448.3,74.8 448.3,79.6 448.3,84.4 448.3,89.2 448.3,94.0 448.3,98.8 448.3,103.6 448.3,108.4 448.3,113.2 448.4,118.0 448.4,122.8 448.4,127.6 448.4,132.4 448.4,137.2 448.5,142.0 448.6,146.8 448.7,151.6 448.8,156.4 448.9,161.2 449.1,166.0 449.3,170.8 449.6,175.6 449.9,180.4 450.2,185.2 450.5,190.0 450.8,194.8 451.2,199.6 451.5,204.4 451.8,209.2 452.1,214.0 452.4,218.8 452.7,223.6 452.9,228.4 453.1,233.2 453.4,238.0 453.6,242.8 453.8,247.6 454.0,252.4 454.2,257.2 454.4,262.0 454.6,266.8 454.7,271.6 454.8,276.4 454.8,281.2 454.8,286.0 454.7,290.8 454.4,295.6 454.1,300.4 453.7,305.2 453.3,310.0 452.8,314.8 452.2,319.6 451.7,324.4 451.1,329.2 450.6,334.0 450.2,338.8 449.8,343.6 449.4,348.4 449.1,353.2 448.9,358.0 448.7,362.8 448.6,367.6 448.5,372.4 448.5,377.2 448.4,382.0 448.4,386.8 448.4,391.6 448.4,396.4 448.3,401.2 448.3,406.0 448.3,410.8 448.3,415.6 448.3,420.4 448.3,425.2 448.3,430.0 448.3,434.8 448.3,439.6 448.3,444.4 448.3,449.2 448.3,454.0 448.3,458.8 448.3,463.6 448.3,468.4 448.3,473.2 448.3,478.0 448.3,482.8 448.3,487.6 448.3,492.4 448.3,497.2 448.3,502.0 448.3,506.8 448.3,511.6 448.3,516.4 448.3,521.2 448.3,526.0 448.3,530.8 448.3,535.6 448.3,540.4 448.3,545.2 448.3,550.0" fill="#fdae6b" fill-opacity="0.60" stroke="#b15928" stroke-width="1.2"/>
<line x1="448.3" y1="209.4" x2="448.3" y2="242.4" stroke="#333" stroke-width="1.5"/>
<line x1="448.3" y1="298.5" x2="448.3" y2="298.9" stroke="#333" stroke-width="1.5"/>
<line x1="430.0" y1="209.4" x2="466.7" y2="209.4" stroke="#333" stroke-width="1.5"/>
<line x1="430.0" y1="298.9" x2="466.7" y2="298.9" stroke="#333" stroke-width="1.5"/>
<rect x="430.0" y="242.4" width="36.7" height="56.1" fill="#9ecae1" fill-opacity="0.92" stroke="#1f4e79" stroke-width="1.5"/>
<line x1="430.0" y1="270.7" x2="466.7" y2="270.7" stroke="#111" stroke-width="2"/>
<polygon points="545.0,550.0 545.0,545.2 545.0,540.4 545.0,535.6 545.0,530.8 545.0,526.0 545.0,521.2 545.0,516.4 545.0,511.6 545.0,506.8 545.0,502.0 545.0,497.2 545.0,492.4 545.0,487.6 545.0,482.8 545.0,478.0 545.0,473.2 545.0,468.4 545.0,463.6 545.0,458.8 545.0,454.0 545.0,449.2 545.0,444.4 545.0,439.6 545.0,434.8 545.0,430.0 545.0,425.2 545.0,420.4 545.0,415.6 545.0,410.8 545.0,406.0 545.0,401.2 545.0,396.4 545.0,391.6 545.0,386.8 545.0,382.0 545.0,377.2 544.9,372.4 544.9,367.6 544.7,362.8 544.6,358.0 544.3,353.2 543.9,348.4 543.5,343.6 542.9,338.8 542.4,334.0 541.8,329.2 541.3,324.4 540.9,319.6 540.5,314.8 540.0,310.0 539.4,305.2 538.5,300.4 537.5,295.6 536.4,290.8 535.2,286.0 534.3,281.2 533.6,276.4 533.5,271.6 533.8,266.8 534.6,262.0 535.8,257.2 537.2,252.4 538.6,247.6 540.0,242.8 541.3,238.0 542.4,233.2 543.2,228.4 543.8,223.6 544.3,218.8 544.6,214.0 544.8,209.2 544.9,204.4 544.9,199.6 545.0,194.8 545.0,190.0 545.0,185.2 545.0,180.4 545.0,175.6 545.0,170.8 545.0,166.0 545.0,161.2 545.0,156.4 545.0,151.6 545.0,146.8 545.0,142.0 545.0,137.2 545.0,132.4 545.0,127.6 545.0,122.8 545.0,118.0 545.0,113.2 545.0,108.4 545.0,103.6 545.0,98.8 545.0,94.0 545.0,89.2 545.0,84.4 545.0,79.6 545.0,74.8 545.0,70.0 545.0,70.0 545.0,74.8 545.0,79.6 545.0,84.4 545.0,89.2 545.0,94.0 545.0,98.8 545.0,103.6 545.0,108.4 545.0,113.2 545.0,118.0 545.0,122.8 545.0,127.6 545.0,132.4 545.0,137.2 545.0,142.0 545.0,146.8 545.0,151.6 545.0,156.4 545.0,161.2 545.0,166.0 545.0,170.8 545.0,175.6 545.0,180.4 545.0,185.2 545.0,190.0 545.0,194.8 545.1,199.6 545.1,204.4 545.2,209.2 545.4,214.0 545.7,218.8 546.2,223.6 546.8,228.4 547.6,233.2 548.7,238.0 550.0,242.8 551.4,247.6 552.8,252.4 554.2,257.2 555.4,262.0 556.2,266.8 556.5,271.6 556.4,276.4 555.7,281.2 554.8,286.0 553.6,290.8 552.5,295.6 551.5,300.4 550.6,305.2 550.0,310.0 549.5,314.8 549.1,319.6 548.7,324.4 548.2,329.2 547.6,334.0 547.1,338.8 546.5,343.6 546.1,348.4 545.7,353.2 545.4,358.0 545.3,362.8 545.1,367.6 545.1,372.4 545.0,377.2 545.0,382.0 545.0,386.8 545.0,391.6 545.0,396.4 545.0,401.2 545.0,406.0 545.0,410.8 545.0,415.6 545.0,420.4 545.0,425.2 545.0,430.0 545.0,434.8 545.0,439.6 545.0,444.4 545.0,449.2 545.0,454.0 545.0,458.8 545.0,463.6 545.0,468.4 545.0,473.2 545.0,478.0 545.0,482.8 545.0,487.6 545.0,492.4 545.0,497.2 545.0,502.0 545.0,506.8 545.0,511.6 545.0,516.4 545.0,521.2 545.0,526.0 545.0,530.8 545.0,535.6 545.0,540.4 545.0,545.2 545.0,550.0" fill="#fdae6b" fill-opacity="0.60" stroke="#b15928" stroke-width="1.2"/>
<line x1="545.0" y1="254.0" x2="545.0" y2="270.6" stroke="#333" stroke-width="1.5"/>
<line x1="545.0" y1="282.8" x2="545.0" y2="320.2" stroke="#333" stroke-width="1.5"/>
<line x1="526.6" y1="254.0" x2="563.4" y2="254.0" stroke="#333" stroke-width="1.5"/>
<line x1="526.6" y1="320.2" x2="563.4" y2="320.2" stroke="#333" stroke-width="1.5"/>
<rect x="526.6" y="270.6" width="36.7" height="12.2" fill="#9ecae1" fill-opacity="0.92" stroke="#1f4e79" stroke-width="1.5"/>
<line x1="526.6" y1="275.1" x2="563.4" y2="275.1" stroke="#111" stroke-width="2"/>
<polygon points="641.7,550.0 641.7,545.2 641.7,540.4 641.7,535.6 641.7,530.8 641.7,526.0 641.7,521.2 641.7,516.4 641.7,511.6 641.7,506.8 641.7,502.0 641.7,497.2 641.7,492.4 641.7,487.6 641.7,482.8 641.7,478.0 641.7,473.2 641.7,468.4 641.7,463.6 641.7,458.8 641.7,454.0 641.7,449.2 641.7,444.4 641.7,439.6 641.7,434.8 641.7,430.0 641.7,425.2 641.7,420.4 641.7,415.6 641.7,410.8 641.7,406.0 641.7,401.2 641.7,396.4 641.7,391.6 641.7,386.8 641.7,382.0 641.7,377.2 641.7,372.4 641.4,367.6 639.3,362.8 629.8,358.0 611.6,353.2 601.1,348.4 609.3,343.6 621.4,338.8 627.5,334.0 634.1,329.2 639.6,324.4 641.4,319.6 641.7,314.8 641.7,310.0 641.7,305.2 641.7,300.4 641.7,295.6 641.7,290.8 641.7,286.0 641.7,281.2 641.7,276.4 641.7,271.6 641.7,266.8 641.7,262.0 641.7,257.2 641.7,252.4 641.7,247.6 641.7,242.8 641.7,238.0 641.7,233.2 641.7,228.4 641.7,223.6 641.7,218.8 641.7,214.0 641.7,209.2 641.7,204.4 641.7,199.6 641.7,194.8 641.7,190.0 641.7,185.2 641.7,180.4 641.7,175.6 641.7,170.8 641.7,166.0 641.7,161.2 641.7,156.4 641.7,151.6 641.7,146.8 641.7,142.0 641.7,137.2 641.7,132.4 641.7,127.6 641.7,122.8 641.7,118.0 641.7,113.2 641.7,108.4 641.7,103.6 641.7,98.8 641.7,94.0 641.7,89.2 641.7,84.4 641.7,79.6 641.7,74.8 641.7,70.0 641.7,70.0 641.7,74.8 641.7,79.6 641.7,84.4 641.7,89.2 641.7,94.0 641.7,98.8 641.7,103.6 641.7,108.4 641.7,113.2 641.7,118.0 641.7,122.8 641.7,127.6 641.7,132.4 641.7,137.2 641.7,142.0 641.7,146.8 641.7,151.6 641.7,156.4 641.7,161.2 641.7,166.0 641.7,170.8 641.7,175.6 641.7,180.4 641.7,185.2 641.7,190.0 641.7,194.8 641.7,199.6 641.7,204.4 641.7,209.2 641.7,214.0 641.7,218.8 641.7,223.6 641.7,228.4 641.7,233.2 641.7,238.0 641.7,242.8 641.7,247.6 641.7,252.4 641.7,257.2 641.7,262.0 641.7,266.8 641.7,271.6 641.7,276.4 641.7,281.2 641.7,286.0 641.7,290.8 641.7,295.6 641.7,300.4 641.7,305.2 641.7,310.0 641.7,314.8 641.9,319.6 643.7,324.4 649.2,329.2 655.8,334.0 661.9,338.8 674.1,343.6 682.3,348.4 671.7,353.2 653.6,358.0 644.0,362.8 641.9,367.6 641.7,372.4 641.7,377.2 641.7,382.0 641.7,386.8 641.7,391.6 641.7,396.4 641.7,401.2 641.7,406.0 641.7,410.8 641.7,415.6 641.7,420.4 641.7,425.2 641.7,430.0 641.7,434.8 641.7,439.6 641.7,444.4 641.7,449.2 641.7,454.0 641.7,458.8 641.7,463.6 641.7,468.4 641.7,473.2 641.7,478.0 641.7,482.8 641.7,487.6 641.7,492.4 641.7,497.2 641.7,502.0 641.7,506.8 641.7,511.6 641.7,516.4 641.7,521.2 641.7,526.0 641.7,530.8 641.7,535.6 641.7,540.4 641.7,545.2 641.7,550.0" fill="#fdae6b" fill-opacity="0.60" stroke="#b15928" stroke-width="1.2"/>
<line x1="641.7" y1="334.3" x2="641.7" y2="344.3" stroke="#333" stroke-width="1.5"/>
<line x1="641.7" y1="350.0" x2="641.7" y2="352.1" stroke="#333" stroke-width="1.5"/>
<line x1="623.3" y1="334.3" x2="660.0" y2="334.3" stroke="#333" stroke-width="1.5"/>
<line x1="623.3" y1="352.1" x2="660.0" y2="352.1" stroke="#333" stroke-width="1.5"/>
<rect x="623.3" y="344.3" width="36.7" height="5.7" fill="#9ecae1" fill-opacity="0.92" stroke="#1f4e79" stroke-width="1.5"/>
<line x1="623.3" y1="347.2" x2="660.0" y2="347.2" stroke="#111" stroke-width="2"/>
<polygon points="738.3,550.0 738.3,545.2 738.3,540.4 738.3,535.6 738.3,530.8 738.3,526.0 738.3,521.2 738.3,516.4 738.3,511.6 738.3,506.8 738.3,502.0 738.3,497.2 738.3,492.4 738.3,487.6 738.3,482.8 738.3,478.0 738.3,473.2 738.3,468.4 738.3,463.6 738.2,458.8 738.2,454.0 738.1,449.2 738.0,444.4 737.8,439.6 737.5,434.8 737.1,430.0 736.7,425.2 736.1,420.4 735.4,415.6 734.7,410.8 733.9,406.0 733.1,401.2 732.4,396.4 731.7,391.6 731.3,386.8 731.0,382.0 730.9,377.2 731.0,372.4 731.2,367.6 731.5,362.8 731.8,358.0 732.1,353.2 732.3,348.4 732.5,343.6 732.6,338.8 732.7,334.0 732.8,329.2 732.9,324.4 733.0,319.6 733.3,314.8 733.7,310.0 734.2,305.2 734.7,300.4 735.2,295.6 735.8,290.8 736.3,286.0 736.8,281.2 737.2,276.4 737.5,271.6 737.8,266.8 738.0,262.0 738.1,257.2 738.2,252.4 738.2,247.6 738.3,242.8 738.3,238.0 738.3,233.2 738.3,228.4 738.3,223.6 738.3,218.8 738.3,214.0 738.3,209.2 738.3,204.4 738.3,199.6 738.3,194.8 738.3,190.0 738.3,185.2 738.3,180.4 738.3,175.6 738.3,170.8 738.3,166.0 738.3,161.2 738.3,156.4 738.3,151.6 738.3,146.8 738.3,142.0 738.3,137.2 738.3,132.4 738.3,127.6 738.3,122.8 738.3,118.0 738.3,113.2 738.3,108.4 738.3,103.6 738.3,98.8 738.3,94.0 738.3,89.2 738.3,84.4 738.3,79.6 738.3,74.8 738.3,70.0 738.3,70.0 738.3,74.8 738.3,79.6 738.3,84.4 738.3,89.2 738.3,94.0 738.3,98.8 738.3,103.6 738.3,108.4 738.3,113.2 738.3,118.0 738.3,122.8 738.3,127.6 738.3,132.4 738.3,137.2 738.3,142.0 738.3,146.8 738.3,151.6 738.3,156.4 738.3,161.2 738.3,166.0 738.3,170.8 738.3,175.6 738.3,180.4 738.3,185.2 738.3,190.0 738.3,194.8 738.3,199.6 738.3,204.4 738.3,209.2 738.3,214.0 738.3,218.8 738.3,223.6 738.3,228.4 738.3,233.2 738.4,238.0 738.4,242.8 738.4,247.6 738.5,252.4 738.6,257.2 738.7,262.0 738.9,266.8 739.1,271.6 739.5,276.4 739.9,281.2 740.3,286.0 740.9,290.8 741.4,295.6 742.0,300.4 742.5,305.2 743.0,310.0 743.4,314.8 743.6,319.6 743.8,324.4 743.9,329.2 744.0,334.0 744.0,338.8 744.1,343.6 744.3,348.4 744.6,353.2 744.9,358.0 745.2,362.8 745.5,367.6 745.7,372.4 745.8,377.2 745.7,382.0 745.4,386.8 744.9,391.6 744.3,396.4 743.6,401.2 742.8,406.0 742.0,410.8 741.3,415.6 740.6,420.4 740.0,425.2 739.5,430.0 739.2,434.8 738.9,439.6 738.7,444.4 738.6,449.2 738.5,454.0 738.4,458.8 738.4,463.6 738.4,468.4 738.3,473.2 738.3,478.0 738.3,482.8 738.3,487.6 738.3,492.4 738.3,497.2 738.3,502.0 738.3,506.8 738.3,511.6 738.3,516.4 738.3,521.2 738.3,526.0 738.3,530.8 738.3,535.6 738.3,540.4 738.3,545.2 738.3,550.0" fill="#fdae6b" fill-opacity="0.60" stroke="#b15928" stroke-width="1.2"/>
<line x1="738.3" y1="320.1" x2="738.3" y2="320.3" stroke="#333" stroke-width="1.5"/>
<line x1="738.3" y1="377.1" x2="738.3" y2="388.2" stroke="#333" stroke-width="1.5"/>
<line x1="720.0" y1="320.1" x2="756.7" y2="320.1" stroke="#333" stroke-width="1.5"/>
<line x1="720.0" y1="388.2" x2="756.7" y2="388.2" stroke="#333" stroke-width="1.5"/>
<rect x="720.0" y="320.3" width="36.7" height="56.8" fill="#9ecae1" fill-opacity="0.92" stroke="#1f4e79" stroke-width="1.5"/>
<line x1="720.0" y1="376.6" x2="756.7" y2="376.6" stroke="#111" stroke-width="2"/>
<polygon points="835.0,550.0 835.0,545.2 835.0,540.4 835.0,535.6 835.0,530.8 835.0,526.0 835.0,521.2 835.0,516.4 835.0,511.6 835.0,506.8 835.0,502.0 835.0,497.2 835.0,492.4 835.0,487.6 834.9,482.8 834.8,478.0 834.6,473.2 834.1,468.4 833.4,463.6 832.6,458.8 831.6,454.0 830.7,449.2 829.9,444.4 829.4,439.6 828.7,434.8 827.7,430.0 826.0,425.2 823.7,420.4 821.4,415.6 819.6,410.8 818.8,406.0 819.5,401.2 821.4,396.4 824.2,391.6 827.2,386.8 829.9,382.0 832.0,377.2 833.4,372.4 834.2,367.6 834.7,362.8 834.9,358.0 835.0,353.2 835.0,348.4 835.0,343.6 835.0,338.8 835.0,334.0 835.0,329.2 835.0,324.4 835.0,319.6 835.0,314.8 835.0,310.0 835.0,305.2 835.0,300.4 835.0,295.6 835.0,290.8 835.0,286.0 835.0,281.2 835.0,276.4 835.0,271.6 835.0,266.8 835.0,262.0 835.0,257.2 835.0,252.4 835.0,247.6 835.0,242.8 835.0,238.0 835.0,233.2 835.0,228.4 835.0,223.6 835.0,218.8 835.0,214.0 835.0,209.2 835.0,204.4 835.0,199.6 835.0,194.8 835.0,190.0 835.0,185.2 835.0,180.4 835.0,175.6 835.0,170.8 835.0,166.0 835.0,161.2 835.0,156.4 835.0,151.6 835.0,146.8 835.0,142.0 835.0,137.2 835.0,132.4 835.0,127.6 835.0,122.8 835.0,118.0 835.0,113.2 835.0,108.4 835.0,103.6 835.0,98.8 835.0,94.0 835.0,89.2 835.0,84.4 835.0,79.6 835.0,74.8 835.0,70.0 835.0,70.0 835.0,74.8 835.0,79.6 835.0,84.4 835.0,89.2 835.0,94.0 835.0,98.8 835.0,103.6 835.0,108.4 835.0,113.2 835.0,118.0 835.0,122.8 835.0,127.6 835.0,132.4 835.0,137.2 835.0,142.0 835.0,146.8 835.0,151.6 835.0,156.4 835.0,161.2 835.0,166.0 835.0,170.8 835.0,175.6 835.0,180.4 835.0,185.2 835.0,190.0 835.0,194.8 835.0,199.6 835.0,204.4 835.0,209.2 835.0,214.0 835.0,218.8 835.0,223.6 835.0,228.4 835.0,233.2 835.0,238.0 835.0,242.8 835.0,247.6 835.0,252.4 835.0,257.2 835.0,262.0 835.0,266.8 835.0,271.6 835.0,276.4 835.0,281.2 835.0,286.0 835.0,290.8 835.0,295.6 835.0,300.4 835.0,305.2 835.0,310.0 835.0,314.8 835.0,319.6 835.0,324.4 835.0,329.2 835.0,334.0 835.0,338.8 835.0,343.6 835.0,348.4 835.0,353.2 835.1,358.0 835.3,362.8 835.8,367.6 836.6,372.4 838.0,377.2 840.1,382.0 842.8,386.8 845.8,391.6 848.6,396.4 850.5,401.2 851.2,406.0 850.4,410.8 848.6,415.6 846.3,420.4 844.0,425.2 842.3,430.0 841.3,434.8 840.6,439.6 840.1,444.4 839.3,449.2 838.4,454.0 837.4,458.8 836.6,463.6 835.9,468.4 835.4,473.2 835.2,478.0 835.1,482.8 835.0,487.6 835.0,492.4 835.0,497.2 835.0,502.0 835.0,506.8 835.0,511.6 835.0,516.4 835.0,521.2 835.0,526.0 835.0,530.8 835.0,535.6 835.0,540.4 835.0,545.2 835.0,550.0" fill="#fdae6b" fill-opacity="0.60" stroke="#b15928" stroke-width="1.2"/>
<line x1="835.0" y1="397.4" x2="835.0" y2="401.1" stroke="#333" stroke-width="1.5"/>
<line x1="835.0" y1="412.7" x2="835.0" y2="443.4" stroke="#333" stroke-width="1.5"/>
<line x1="816.6" y1="397.4" x2="853.4" y2="397.4" stroke="#333" stroke-width="1.5"/>
<line x1="816.6" y1="443.4" x2="853.4" y2="443.4" stroke="#333" stroke-width="1.5"/>
<rect x="816.6" y="401.1" width="36.7" height="11.6" fill="#9ecae1" fill-opacity="0.92" stroke="#1f4e79" stroke-width="1.5"/>
<line x1="816.6" y1="410.5" x2="853.4" y2="410.5" stroke="#111" stroke-width="2"/>
<polygon points="931.3,550.0 931.2,545.2 931.0,540.4 930.8,535.6 930.6,530.8 930.4,526.0 930.1,521.2 929.8,516.4 929.4,511.6 929.1,506.8 928.7,502.0 928.4,497.2 928.0,492.4 927.7,487.6 927.4,482.8 927.2,478.0 927.0,473.2 926.9,468.4 926.8,463.6 926.7,458.8 926.7,454.0 926.6,449.2 926.7,444.4 926.7,439.6 926.7,434.8 926.7,430.0 926.7,425.2 926.7,420.4 926.7,415.6 926.7,410.8 926.8,406.0 926.8,401.2 926.9,396.4 927.0,391.6 927.2,386.8 927.4,382.0 927.7,377.2 928.0,372.4 928.3,367.6 928.6,362.8 929.0,358.0 929.3,353.2 929.7,348.4 930.0,343.6 930.3,338.8 930.6,334.0 930.8,329.2 931.0,324.4 931.1,319.6 931.3,314.8 931.4,310.0 931.5,305.2 931.5,300.4 931.6,295.6 931.6,290.8 931.6,286.0 931.6,281.2 931.6,276.4 931.7,271.6 931.7,266.8 931.7,262.0 931.7,257.2 931.7,252.4 931.7,247.6 931.7,242.8 931.7,238.0 931.7,233.2 931.7,228.4 931.7,223.6 931.7,218.8 931.7,214.0 931.7,209.2 931.7,204.4 931.7,199.6 931.7,194.8 931.7,190.0 931.7,185.2 931.7,180.4 931.7,175.6 931.7,170.8 931.7,166.0 931.7,161.2 931.7,156.4 931.7,151.6 931.7,146.8 931.7,142.0 931.7,137.2 931.7,132.4 931.7,127.6 931.7,122.8 931.7,118.0 931.7,113.2 931.7,108.4 931.7,103.6 931.7,98.8 931.7,94.0 931.7,89.2 931.7,84.4 931.7,79.6 931.7,74.8 931.7,70.0 931.7,70.0 931.7,74.8 931.7,79.6 931.7,84.4 931.7,89.2 931.7,94.0 931.7,98.8 931.7,103.6 931.7,108.4 931.7,113.2 931.7,118.0 931.7,122.8 931.7,127.6 931.7,132.4 931.7,137.2 931.7,142.0 931.7,146.8 931.7,151.6 931.7,156.4 931.7,161.2 931.7,166.0 931.7,170.8 931.7,175.6 931.7,180.4 931.7,185.2 931.7,190.0 931.7,194.8 931.7,199.6 931.7,204.4 931.7,209.2 931.7,214.0 931.7,218.8 931.7,223.6 931.7,228.4 931.7,233.2 931.7,238.0 931.7,242.8 931.7,247.6 931.7,252.4 931.7,257.2 931.7,262.0 931.7,266.8 931.7,271.6 931.7,276.4 931.7,281.2 931.7,286.0 931.7,290.8 931.8,295.6 931.8,300.4 931.9,305.2 932.0,310.0 932.1,314.8 932.2,319.6 932.4,324.4 932.5,329.2 932.8,334.0 933.0,338.8 933.3,343.6 933.7,348.4 934.0,353.2 934.4,358.0 934.7,362.8 935.0,367.6 935.4,372.4 935.7,377.2 935.9,382.0 936.1,386.8 936.3,391.6 936.4,396.4 936.5,401.2 936.6,406.0 936.6,410.8 936.6,415.6 936.6,420.4 936.6,425.2 936.6,430.0 936.6,434.8 936.7,439.6 936.7,444.4 936.7,449.2 936.7,454.0 936.6,458.8 936.6,463.6 936.5,468.4 936.3,473.2 936.1,478.0 935.9,482.8 935.6,487.6 935.3,492.4 935.0,497.2 934.6,502.0 934.2,506.8 933.9,511.6 933.6,516.4 933.2,521.2 933.0,526.0 932.7,530.8 932.5,535.6 932.3,540.4 932.1,545.2 932.0,550.0" fill="#fdae6b" fill-opacity="0.60" stroke="#b15928" stroke-width="1.2"/>
<line x1="931.7" y1="384.3" x2="931.7" y2="390.0" stroke="#333" stroke-width="1.5"/>
<line x1="931.7" y1="470.2" x2="931.7" y2="481.1" stroke="#333" stroke-width="1.5"/>
<line x1="913.3" y1="384.3" x2="950.0" y2="384.3" stroke="#333" stroke-width="1.5"/>
<line x1="913.3" y1="481.1" x2="950.0" y2="481.1" stroke="#333" stroke-width="1.5"/>
<rect x="913.3" y="390.0" width="36.7" height="80.1" fill="#9ecae1" fill-opacity="0.92" stroke="#1f4e79" stroke-width="1.5"/>
<line x1="913.3" y1="433.7" x2="950.0" y2="433.7" stroke="#111" stroke-width="2"/>
<polygon points="1028.3,550.0 1028.3,545.2 1028.3,540.4 1028.3,535.6 1028.3,530.8 1028.3,526.0 1028.2,521.2 1028.2,516.4 1028.1,511.6 1027.9,506.8 1027.8,502.0 1027.5,497.2 1027.2,492.4 1026.8,487.6 1026.3,482.8 1025.7,478.0 1025.1,473.2 1024.5,468.4 1023.8,463.6 1023.1,458.8 1022.6,454.0 1022.1,449.2 1021.7,444.4 1021.5,439.6 1021.4,434.8 1021.5,430.0 1021.6,425.2 1021.8,420.4 1022.1,415.6 1022.3,410.8 1022.5,406.0 1022.6,401.2 1022.7,396.4 1022.8,391.6 1022.9,386.8 1023.0,382.0 1023.2,377.2 1023.4,372.4 1023.8,367.6 1024.2,362.8 1024.6,358.0 1025.1,353.2 1025.6,348.4 1026.1,343.6 1026.6,338.8 1027.0,334.0 1027.3,329.2 1027.6,324.4 1027.8,319.6 1028.0,314.8 1028.1,310.0 1028.2,305.2 1028.2,300.4 1028.3,295.6 1028.3,290.8 1028.3,286.0 1028.3,281.2 1028.3,276.4 1028.3,271.6 1028.3,266.8 1028.3,262.0 1028.3,257.2 1028.3,252.4 1028.3,247.6 1028.3,242.8 1028.3,238.0 1028.3,233.2 1028.3,228.4 1028.3,223.6 1028.3,218.8 1028.3,214.0 1028.3,209.2 1028.3,204.4 1028.3,199.6 1028.3,194.8 1028.3,190.0 1028.3,185.2 1028.3,180.4 1028.3,175.6 1028.3,170.8 1028.3,166.0 1028.3,161.2 1028.3,156.4 1028.3,151.6 1028.3,146.8 1028.3,142.0 1028.3,137.2 1028.3,132.4 1028.3,127.6 1028.3,122.8 1028.3,118.0 1028.3,113.2 1028.3,108.4 1028.3,103.6 1028.3,98.8 1028.3,94.0 1028.3,89.2 1028.3,84.4 1028.3,79.6 1028.3,74.8 1028.3,70.0 1028.3,70.0 1028.3,74.8 1028.3,79.6 1028.3,84.4 1028.3,89.2 1028.3,94.0 1028.3,98.8 1028.3,103.6 1028.3,108.4 1028.3,113.2 1028.3,118.0 1028.3,122.8 1028.3,127.6 1028.3,132.4 1028.3,137.2 1028.3,142.0 1028.3,146.8 1028.3,151.6 1028.3,156.4 1028.3,161.2 1028.3,166.0 1028.3,170.8 1028.3,175.6 1028.3,180.4 1028.3,185.2 1028.3,190.0 1028.3,194.8 1028.3,199.6 1028.3,204.4 1028.3,209.2 1028.3,214.0 1028.3,218.8 1028.3,223.6 1028.3,228.4 1028.3,233.2 1028.3,238.0 1028.3,242.8 1028.3,247.6 1028.3,252.4 1028.3,257.2 1028.3,262.0 1028.3,266.8 1028.3,271.6 1028.3,276.4 1028.3,281.2 1028.4,286.0 1028.4,290.8 1028.4,295.6 1028.4,300.4 1028.5,305.2 1028.6,310.0 1028.7,314.8 1028.9,319.6 1029.1,324.4 1029.4,329.2 1029.7,334.0 1030.1,338.8 1030.6,343.6 1031.1,348.4 1031.6,353.2 1032.1,358.0 1032.5,362.8 1032.9,367.6 1033.2,372.4 1033.5,377.2 1033.7,382.0 1033.8,386.8 1033.9,391.6 1033.9,396.4 1034.0,401.2 1034.2,406.0 1034.4,410.8 1034.6,415.6 1034.8,420.4 1035.0,425.2 1035.2,430.0 1035.2,434.8 1035.2,439.6 1034.9,444.4 1034.6,449.2 1034.1,454.0 1033.5,458.8 1032.9,463.6 1032.2,468.4 1031.6,473.2 1030.9,478.0 1030.4,482.8 1029.9,487.6 1029.5,492.4 1029.2,497.2 1028.9,502.0 1028.7,506.8 1028.6,511.6 1028.5,516.4 1028.4,521.2 1028.4,526.0 1028.4,530.8 1028.4,535.6 1028.3,540.4 1028.3,545.2 1028.3,550.0" fill="#fdae6b" fill-opacity="0.60" stroke="#b15928" stroke-width="1.2"/>
<line x1="1028.3" y1="372.9" x2="1028.3" y2="380.1" stroke="#333" stroke-width="1.5"/>
<line x1="1028.3" y1="439.7" x2="1028.3" y2="449.8" stroke="#333" stroke-width="1.5"/>
<line x1="1010.0" y1="372.9" x2="1046.7" y2="372.9" stroke="#333" stroke-width="1.5"/>
<line x1="1010.0" y1="449.8" x2="1046.7" y2="449.8" stroke="#333" stroke-width="1.5"/>
<rect x="1010.0" y="380.1" width="36.7" height="59.6" fill="#9ecae1" fill-opacity="0.92" stroke="#1f4e79" stroke-width="1.5"/>
<line x1="1010.0" y1="428.0" x2="1046.7" y2="428.0" stroke="#111" stroke-width="2"/>
<polygon points="1123.8,550.0 1123.5,545.2 1123.1,540.4 1122.7,535.6 1122.3,530.8 1121.9,526.0 1121.5,521.2 1121.2,516.4 1120.8,511.6 1120.5,506.8 1120.2,502.0 1119.9,497.2 1119.6,492.4 1119.3,487.6 1119.0,482.8 1118.6,478.0 1118.3,473.2 1117.9,468.4 1117.6,463.6 1117.3,458.8 1117.2,454.0 1117.2,449.2 1117.4,444.4 1117.7,439.6 1118.2,434.8 1118.9,430.0 1119.6,425.2 1120.4,420.4 1121.2,415.6 1122.0,410.8 1122.6,406.0 1123.2,401.2 1123.7,396.4 1124.1,391.6 1124.4,386.8 1124.6,382.0 1124.7,377.2 1124.8,372.4 1124.9,367.6 1124.9,362.8 1125.0,358.0 1125.0,353.2 1125.0,348.4 1125.0,343.6 1125.0,338.8 1125.0,334.0 1125.0,329.2 1125.0,324.4 1125.0,319.6 1125.0,314.8 1125.0,310.0 1125.0,305.2 1125.0,300.4 1125.0,295.6 1125.0,290.8 1125.0,286.0 1125.0,281.2 1125.0,276.4 1125.0,271.6 1125.0,266.8 1125.0,262.0 1125.0,257.2 1125.0,252.4 1125.0,247.6 1125.0,242.8 1125.0,238.0 1125.0,233.2 1125.0,228.4 1125.0,223.6 1125.0,218.8 1125.0,214.0 1125.0,209.2 1125.0,204.4 1125.0,199.6 1125.0,194.8 1125.0,190.0 1125.0,185.2 1125.0,180.4 1125.0,175.6 1125.0,170.8 1125.0,166.0 1125.0,161.2 1125.0,156.4 1125.0,151.6 1125.0,146.8 1125.0,142.0 1125.0,137.2 1125.0,132.4 1125.0,127.6 1125.0,122.8 1125.0,118.0 1125.0,113.2 1125.0,108.4 1125.0,103.6 1125.0,98.8 1125.0,94.0 1125.0,89.2 1125.0,84.4 1125.0,79.6 1125.0,74.8 1125.0,70.0 1125.0,70.0 1125.0,74.8 1125.0,79.6 1125.0,84.4 1125.0,89.2 1125.0,94.0 1125.0,98.8 1125.0,103.6 1125.0,108.4 1125.0,113.2 1125.0,118.0 1125.0,122.8 1125.0,127.6 1125.0,132.4 1125.0,137.2 1125.0,142.0 1125.0,146.8 1125.0,151.6 1125.0,156.4 1125.0,161.2 1125.0,166.0 1125.0,170.8 1125.0,175.6 1125.0,180.4 1125.0,185.2 1125.0,190.0 1125.0,194.8 1125.0,199.6 1125.0,204.4 1125.0,209.2 1125.0,214.0 1125.0,218.8 1125.0,223.6 1125.0,228.4 1125.0,233.2 1125.0,238.0 1125.0,242.8 1125.0,247.6 1125.0,252.4 1125.0,257.2 1125.0,262.0 1125.0,266.8 1125.0,271.6 1125.0,276.4 1125.0,281.2 1125.0,286.0 1125.0,290.8 1125.0,295.6 1125.0,300.4 1125.0,305.2 1125.0,310.0 1125.0,314.8 1125.0,319.6 1125.0,324.4 1125.0,329.2 1125.0,334.0 1125.0,338.8 1125.0,343.6 1125.0,348.4 1125.0,353.2 1125.0,358.0 1125.1,362.8 1125.1,367.6 1125.2,372.4 1125.3,377.2 1125.4,382.0 1125.6,386.8 1125.9,391.6 1126.3,396.4 1126.8,401.2 1127.4,406.0 1128.0,410.8 1128.8,415.6 1129.6,420.4 1130.4,425.2 1131.1,430.0 1131.8,434.8 1132.3,439.6 1132.6,444.4 1132.8,449.2 1132.8,454.0 1132.7,458.8 1132.4,463.6 1132.1,468.4 1131.7,473.2 1131.4,478.0 1131.0,482.8 1130.7,487.6 1130.4,492.4 1130.1,497.2 1129.8,502.0 1129.5,506.8 1129.2,511.6 1128.8,516.4 1128.5,521.2 1128.1,526.0 1127.7,530.8 1127.3,535.6 1126.9,540.4 1126.5,545.2 1126.2,550.0" fill="#fdae6b" fill-opacity="0.60" stroke="#b15928" stroke-width="1.2"/>
<line x1="1125.0" y1="436.6" x2="1125.0" y2="444.7" stroke="#333" stroke-width="1.5"/>
<line x1="1125.0" y1="486.4" x2="1125.0" y2="516.9" stroke="#333" stroke-width="1.5"/>
<line x1="1106.6" y1="436.6" x2="1143.4" y2="436.6" stroke="#333" stroke-width="1.5"/>
<line x1="1106.6" y1="516.9" x2="1143.4" y2="516.9" stroke="#333" stroke-width="1.5"/>
<rect x="1106.6" y="444.7" width="36.7" height="41.7" fill="#9ecae1" fill-opacity="0.92" stroke="#1f4e79" stroke-width="1.5"/>
<line x1="1106.6" y1="454.8" x2="1143.4" y2="454.8" stroke="#111" stroke-width="2"/>
<polygon points="1221.5,550.0 1221.4,545.2 1221.3,540.4 1221.1,535.6 1220.8,530.8 1220.4,526.0 1219.9,521.2 1219.4,516.4 1218.9,511.6 1218.3,506.8 1217.7,502.0 1217.2,497.2 1216.7,492.4 1216.3,487.6 1215.9,482.8 1215.6,478.0 1215.1,473.2 1214.7,468.4 1214.2,463.6 1213.6,458.8 1213.1,454.0 1212.6,449.2 1212.3,444.4 1212.3,439.6 1212.5,434.8 1213.1,430.0 1214.0,425.2 1215.0,420.4 1216.1,415.6 1217.3,410.8 1218.4,406.0 1219.3,401.2 1220.0,396.4 1220.6,391.6 1221.0,386.8 1221.3,382.0 1221.4,377.2 1221.5,372.4 1221.6,367.6 1221.6,362.8 1221.7,358.0 1221.7,353.2 1221.7,348.4 1221.7,343.6 1221.7,338.8 1221.7,334.0 1221.7,329.2 1221.7,324.4 1221.7,319.6 1221.7,314.8 1221.7,310.0 1221.7,305.2 1221.7,300.4 1221.7,295.6 1221.7,290.8 1221.7,286.0 1221.7,281.2 1221.7,276.4 1221.7,271.6 1221.7,266.8 1221.7,262.0 1221.7,257.2 1221.7,252.4 1221.7,247.6 1221.7,242.8 1221.7,238.0 1221.7,233.2 1221.7,228.4 1221.7,223.6 1221.7,218.8 1221.7,214.0 1221.7,209.2 1221.7,204.4 1221.7,199.6 1221.7,194.8 1221.7,190.0 1221.7,185.2 1221.7,180.4 1221.7,175.6 1221.7,170.8 1221.7,166.0 1221.7,161.2 1221.7,156.4 1221.7,151.6 1221.7,146.8 1221.7,142.0 1221.7,137.2 1221.7,132.4 1221.7,127.6 1221.7,122.8 1221.7,118.0 1221.7,113.2 1221.7,108.4 1221.7,103.6 1221.7,98.8 1221.7,94.0 1221.7,89.2 1221.7,84.4 1221.7,79.6 1221.7,74.8 1221.7,70.0 1221.7,70.0 1221.7,74.8 1221.7,79.6 1221.7,84.4 1221.7,89.2 1221.7,94.0 1221.7,98.8 1221.7,103.6 1221.7,108.4 1221.7,113.2 1221.7,118.0 1221.7,122.8 1221.7,127.6 1221.7,132.4 1221.7,137.2 1221.7,142.0 1221.7,146.8 1221.7,151.6 1221.7,156.4 1221.7,161.2 1221.7,166.0 1221.7,170.8 1221.7,175.6 1221.7,180.4 1221.7,185.2 1221.7,190.0 1221.7,194.8 1221.7,199.6 1221.7,204.4 1221.7,209.2 1221.7,214.0 1221.7,218.8 1221.7,223.6 1221.7,228.4 1221.7,233.2 1221.7,238.0 1221.7,242.8 1221.7,247.6 1221.7,252.4 1221.7,257.2 1221.7,262.0 1221.7,266.8 1221.7,271.6 1221.7,276.4 1221.7,281.2 1221.7,286.0 1221.7,290.8 1221.7,295.6 1221.7,300.4 1221.7,305.2 1221.7,310.0 1221.7,314.8 1221.7,319.6 1221.7,324.4 1221.7,329.2 1221.7,334.0 1221.7,338.8 1221.7,343.6 1221.7,348.4 1221.7,353.2 1221.7,358.0 1221.7,362.8 1221.7,367.6 1221.8,372.4 1221.9,377.2 1222.1,382.0 1222.3,386.8 1222.8,391.6 1223.3,396.4 1224.1,401.2 1225.0,406.0 1226.0,410.8 1227.2,415.6 1228.3,420.4 1229.4,425.2 1230.2,430.0 1230.8,434.8 1231.1,439.6 1231.0,444.4 1230.7,449.2 1230.3,454.0 1229.7,458.8 1229.2,463.6 1228.6,468.4 1228.2,473.2 1227.8,478.0 1227.4,482.8 1227.0,487.6 1226.6,492.4 1226.1,497.2 1225.6,502.0 1225.1,506.8 1224.5,511.6 1223.9,516.4 1223.4,521.2 1222.9,526.0 1222.6,530.8 1222.3,535.6 1222.1,540.4 1221.9,545.2 1221.8,550.0" fill="#fdae6b" fill-opacity="0.60" stroke="#b15928" stroke-width="1.2"/>
<line x1="1221.7" y1="430.0" x2="1221.7" y2="437.2" stroke="#333" stroke-width="1.5"/>
<line x1="1221.7" y1="471.3" x2="1221.7" y2="497.0" stroke="#333" stroke-width="1.5"/>
<line x1="1203.3" y1="430.0" x2="1240.0" y2="430.0" stroke="#333" stroke-width="1.5"/>
<line x1="1203.3" y1="497.0" x2="1240.0" y2="497.0" stroke="#333" stroke-width="1.5"/>
<rect x="1203.3" y="437.2" width="36.7" height="34.0" fill="#9ecae1" fill-opacity="0.92" stroke="#1f4e79" stroke-width="1.5"/>
<line x1="1203.3" y1="441.8" x2="1240.0" y2="441.8" stroke="#111" stroke-width="2"/>
<polygon points="1318.2,550.0 1318.1,545.2 1318.0,540.4 1317.9,535.6 1317.7,530.8 1317.5,526.0 1317.2,521.2 1316.8,516.4 1316.4,511.6 1315.9,506.8 1315.4,502.0 1314.8,497.2 1314.3,492.4 1313.7,487.6 1313.2,482.8 1312.7,478.0 1312.3,473.2 1311.9,468.4 1311.7,463.6 1311.5,458.8 1311.5,454.0 1311.5,449.2 1311.6,444.4 1311.7,439.6 1311.8,434.8 1311.9,430.0 1312.1,425.2 1312.2,420.4 1312.4,415.6 1312.6,410.8 1312.9,406.0 1313.3,401.2 1313.7,396.4 1314.2,391.6 1314.7,386.8 1315.2,382.0 1315.8,377.2 1316.3,372.4 1316.7,367.6 1317.1,362.8 1317.4,358.0 1317.7,353.2 1317.9,348.4 1318.0,343.6 1318.1,338.8 1318.2,334.0 1318.3,329.2 1318.3,324.4 1318.3,319.6 1318.3,314.8 1318.3,310.0 1318.3,305.2 1318.3,300.4 1318.3,295.6 1318.3,290.8 1318.3,286.0 1318.3,281.2 1318.3,276.4 1318.3,271.6 1318.3,266.8 1318.3,262.0 1318.3,257.2 1318.3,252.4 1318.3,247.6 1318.3,242.8 1318.3,238.0 1318.3,233.2 1318.3,228.4 1318.3,223.6 1318.3,218.8 1318.3,214.0 1318.3,209.2 1318.3,204.4 1318.3,199.6 1318.3,194.8 1318.3,190.0 1318.3,185.2 1318.3,180.4 1318.3,175.6 1318.3,170.8 1318.3,166.0 1318.3,161.2 1318.3,156.4 1318.3,151.6 1318.3,146.8 1318.3,142.0 1318.3,137.2 1318.3,132.4 1318.3,127.6 1318.3,122.8 1318.3,118.0 1318.3,113.2 1318.3,108.4 1318.3,103.6 1318.3,98.8 1318.3,94.0 1318.3,89.2 1318.3,84.4 1318.3,79.6 1318.3,74.8 1318.3,70.0 1318.3,70.0 1318.3,74.8 1318.3,79.6 1318.3,84.4 1318.3,89.2 1318.3,94.0 1318.3,98.8 1318.3,103.6 1318.3,108.4 1318.3,113.2 1318.3,118.0 1318.3,122.8 1318.3,127.6 1318.3,132.4 1318.3,137.2 1318.3,142.0 1318.3,146.8 1318.3,151.6 1318.3,156.4 1318.3,161.2 1318.3,166.0 1318.3,170.8 1318.3,175.6 1318.3,180.4 1318.3,185.2 1318.3,190.0 1318.3,194.8 1318.3,199.6 1318.3,204.4 1318.3,209.2 1318.3,214.0 1318.3,218.8 1318.3,223.6 1318.3,228.4 1318.3,233.2 1318.3,238.0 1318.3,242.8 1318.3,247.6 1318.3,252.4 1318.3,257.2 1318.3,262.0 1318.3,266.8 1318.3,271.6 1318.3,276.4 1318.3,281.2 1318.3,286.0 1318.3,290.8 1318.3,295.6 1318.3,300.4 1318.3,305.2 1318.3,310.0 1318.3,314.8 1318.4,319.6 1318.4,324.4 1318.4,329.2 1318.5,334.0 1318.5,338.8 1318.6,343.6 1318.8,348.4 1319.0,353.2 1319.2,358.0 1319.6,362.8 1319.9,367.6 1320.4,372.4 1320.9,377.2 1321.4,382.0 1322.0,386.8 1322.5,391.6 1323.0,396.4 1323.4,401.2 1323.8,406.0 1324.0,410.8 1324.3,415.6 1324.4,420.4 1324.6,425.2 1324.7,430.0 1324.9,434.8 1325.0,439.6 1325.1,444.4 1325.2,449.2 1325.2,454.0 1325.1,458.8 1325.0,463.6 1324.7,468.4 1324.4,473.2 1324.0,478.0 1323.5,482.8 1323.0,487.6 1322.4,492.4 1321.8,497.2 1321.3,502.0 1320.7,506.8 1320.3,511.6 1319.9,516.4 1319.5,521.2 1319.2,526.0 1319.0,530.8 1318.8,535.6 1318.6,540.4 1318.5,545.2 1318.5,550.0" fill="#fdae6b" fill-opacity="0.60" stroke="#b15928" stroke-width="1.2"/>
<line x1="1318.3" y1="401.6" x2="1318.3" y2="412.4" stroke="#333" stroke-width="1.5"/>
<line x1="1318.3" y1="457.0" x2="1318.3" y2="485.3" stroke="#333" stroke-width="1.5"/>
<line x1="1300.0" y1="401.6" x2="1336.7" y2="401.6" stroke="#333" stroke-width="1.5"/>
<line x1="1300.0" y1="485.3" x2="1336.7" y2="485.3" stroke="#333" stroke-width="1.5"/>
<rect x="1300.0" y="412.4" width="36.7" height="44.6" fill="#9ecae1" fill-opacity="0.92" stroke="#1f4e79" stroke-width="1.5"/>
<line x1="1300.0" y1="454.2" x2="1336.7" y2="454.2" stroke="#111" stroke-width="2"/>
<polygon points="1415.0,550.0 1415.0,545.2 1415.0,540.4 1415.0,535.6 1415.0,530.8 1415.0,526.0 1415.0,521.2 1415.0,516.4 1415.0,511.6 1415.0,506.8 1415.0,502.0 1415.0,497.2 1415.0,492.4 1415.0,487.6 1414.9,482.8 1414.8,478.0 1414.6,473.2 1414.3,468.4 1413.8,463.6 1413.1,458.8 1412.2,454.0 1411.2,449.2 1410.1,444.4 1409.1,439.6 1408.2,434.8 1407.6,430.0 1407.1,425.2 1406.9,420.4 1406.6,415.6 1406.3,410.8 1405.9,406.0 1405.3,401.2 1404.8,396.4 1404.6,391.6 1404.7,386.8 1405.4,382.0 1406.4,377.2 1407.8,372.4 1409.3,367.6 1410.7,362.8 1412.0,358.0 1413.0,353.2 1413.8,348.4 1414.3,343.6 1414.6,338.8 1414.8,334.0 1414.9,329.2 1415.0,324.4 1415.0,319.6 1415.0,314.8 1415.0,310.0 1415.0,305.2 1415.0,300.4 1415.0,295.6 1415.0,290.8 1415.0,286.0 1415.0,281.2 1415.0,276.4 1415.0,271.6 1415.0,266.8 1415.0,262.0 1415.0,257.2 1415.0,252.4 1415.0,247.6 1415.0,242.8 1415.0,238.0 1415.0,233.2 1415.0,228.4 1415.0,223.6 1415.0,218.8 1415.0,214.0 1415.0,209.2 1415.0,204.4 1415.0,199.6 1415.0,194.8 1415.0,190.0 1415.0,185.2 1415.0,180.4 1415.0,175.6 1415.0,170.8 1415.0,166.0 1415.0,161.2 1415.0,156.4 1415.0,151.6 1415.0,146.8 1415.0,142.0 1415.0,137.2 1415.0,132.4 1415.0,127.6 1415.0,122.8 1415.0,118.0 1415.0,113.2 1415.0,108.4 1415.0,103.6 1415.0,98.8 1415.0,94.0 1415.0,89.2 1415.0,84.4 1415.0,79.6 1415.0,74.8 1415.0,70.0 1415.0,70.0 1415.0,74.8 1415.0,79.6 1415.0,84.4 1415.0,89.2 1415.0,94.0 1415.0,98.8 1415.0,103.6 1415.0,108.4 1415.0,113.2 1415.0,118.0 1415.0,122.8 1415.0,127.6 1415.0,132.4 1415.0,137.2 1415.0,142.0 1415.0,146.8 1415.0,151.6 1415.0,156.4 1415.0,161.2 1415.0,166.0 1415.0,170.8 1415.0,175.6 1415.0,180.4 1415.0,185.2 1415.0,190.0 1415.0,194.8 1415.0,199.6 1415.0,204.4 1415.0,209.2 1415.0,214.0 1415.0,218.8 1415.0,223.6 1415.0,228.4 1415.0,233.2 1415.0,238.0 1415.0,242.8 1415.0,247.6 1415.0,252.4 1415.0,257.2 1415.0,262.0 1415.0,266.8 1415.0,271.6 1415.0,276.4 1415.0,281.2 1415.0,286.0 1415.0,290.8 1415.0,295.6 1415.0,300.4 1415.0,305.2 1415.0,310.0 1415.0,314.8 1415.0,319.6 1415.0,324.4 1415.1,329.2 1415.2,334.0 1415.4,338.8 1415.7,343.6 1416.2,348.4 1417.0,353.2 1418.0,358.0 1419.3,362.8 1420.7,367.6 1422.2,372.4 1423.6,377.2 1424.6,382.0 1425.3,386.8 1425.4,391.6 1425.2,396.4 1424.7,401.2 1424.1,406.0 1423.7,410.8 1423.4,415.6 1423.1,420.4 1422.9,425.2 1422.4,430.0 1421.8,434.8 1420.9,439.6 1419.9,444.4 1418.8,449.2 1417.8,454.0 1416.9,458.8 1416.2,463.6 1415.7,468.4 1415.4,473.2 1415.2,478.0 1415.1,482.8 1415.0,487.6 1415.0,492.4 1415.0,497.2 1415.0,502.0 1415.0,506.8 1415.0,511.6 1415.0,516.4 1415.0,521.2 1415.0,526.0 1415.0,530.8 1415.0,535.6 1415.0,540.4 1415.0,545.2 1415.0,550.0" fill="#fdae6b" fill-opacity="0.60" stroke="#b15928" stroke-width="1.2"/>
<line x1="1415.0" y1="380.2" x2="1415.0" y2="387.7" stroke="#333" stroke-width="1.5"/>
<line x1="1415.0" y1="425.0" x2="1415.0" y2="433.3" stroke="#333" stroke-width="1.5"/>
<line x1="1396.6" y1="380.2" x2="1433.4" y2="380.2" stroke="#333" stroke-width="1.5"/>
<line x1="1396.6" y1="433.3" x2="1433.4" y2="433.3" stroke="#333" stroke-width="1.5"/>
<rect x="1396.6" y="387.7" width="36.7" height="37.3" fill="#9ecae1" fill-opacity="0.92" stroke="#1f4e79" stroke-width="1.5"/>
<line x1="1396.6" y1="394.2" x2="1433.4" y2="394.2" stroke="#111" stroke-width="2"/>
<polygon points="1511.3,550.0 1511.3,545.2 1511.2,540.4 1511.0,535.6 1510.9,530.8 1510.8,526.0 1510.7,521.2 1510.5,516.4 1510.4,511.6 1510.3,506.8 1510.2,502.0 1510.1,497.2 1510.0,492.4 1510.0,487.6 1509.9,482.8 1509.9,478.0 1509.8,473.2 1509.8,468.4 1509.7,463.6 1509.6,458.8 1509.4,454.0 1509.2,449.2 1509.0,444.4 1508.6,439.6 1508.3,434.8 1507.9,430.0 1507.4,425.2 1506.9,420.4 1506.5,415.6 1506.0,410.8 1505.6,406.0 1505.3,401.2 1505.0,396.4 1504.9,391.6 1504.8,386.8 1504.8,382.0 1505.0,377.2 1505.2,372.4 1505.6,367.6 1506.0,362.8 1506.5,358.0 1507.0,353.2 1507.5,348.4 1508.0,343.6 1508.5,338.8 1509.0,334.0 1509.5,329.2 1509.9,324.4 1510.2,319.6 1510.5,314.8 1510.8,310.0 1511.0,305.2 1511.2,300.4 1511.3,295.6 1511.4,290.8 1511.5,286.0 1511.5,281.2 1511.6,276.4 1511.6,271.6 1511.6,266.8 1511.6,262.0 1511.7,257.2 1511.7,252.4 1511.7,247.6 1511.7,242.8 1511.7,238.0 1511.7,233.2 1511.7,228.4 1511.7,223.6 1511.7,218.8 1511.7,214.0 1511.7,209.2 1511.7,204.4 1511.7,199.6 1511.7,194.8 1511.7,190.0 1511.7,185.2 1511.7,180.4 1511.7,175.6 1511.7,170.8 1511.7,166.0 1511.7,161.2 1511.7,156.4 1511.7,151.6 1511.7,146.8 1511.7,142.0 1511.7,137.2 1511.7,132.4 1511.7,127.6 1511.7,122.8 1511.7,118.0 1511.7,113.2 1511.7,108.4 1511.7,103.6 1511.7,98.8 1511.7,94.0 1511.7,89.2 1511.7,84.4 1511.7,79.6 1511.7,74.8 1511.7,70.0 1511.7,70.0 1511.7,74.8 1511.7,79.6 1511.7,84.4 1511.7,89.2 1511.7,94.0 1511.7,98.8 1511.7,103.6 1511.7,108.4 1511.7,113.2 1511.7,118.0 1511.7,122.8 1511.7,127.6 1511.7,132.4 1511.7,137.2 1511.7,142.0 1511.7,146.8 1511.7,151.6 1511.7,156.4 1511.7,161.2 1511.7,166.0 1511.7,170.8 1511.7,175.6 1511.7,180.4 1511.7,185.2 1511.7,190.0 1511.7,194.8 1511.7,199.6 1511.7,204.4 1511.7,209.2 1511.7,214.0 1511.7,218.8 1511.7,223.6 1511.7,228.4 1511.7,233.2 1511.7,238.0 1511.7,242.8 1511.7,247.6 1511.7,252.4 1511.7,257.2 1511.7,262.0 1511.7,266.8 1511.7,271.6 1511.8,276.4 1511.8,281.2 1511.9,286.0 1511.9,290.8 1512.0,295.6 1512.2,300.4 1512.3,305.2 1512.5,310.0 1512.8,314.8 1513.1,319.6 1513.4,324.4 1513.8,329.2 1514.3,334.0 1514.8,338.8 1515.3,343.6 1515.8,348.4 1516.4,353.2 1516.9,358.0 1517.3,362.8 1517.8,367.6 1518.1,372.4 1518.3,377.2 1518.5,382.0 1518.5,386.8 1518.5,391.6 1518.3,396.4 1518.0,401.2 1517.7,406.0 1517.3,410.8 1516.9,415.6 1516.4,420.4 1515.9,425.2 1515.5,430.0 1515.1,434.8 1514.7,439.6 1514.4,444.4 1514.1,449.2 1513.9,454.0 1513.7,458.8 1513.6,463.6 1513.5,468.4 1513.5,473.2 1513.4,478.0 1513.4,482.8 1513.4,487.6 1513.3,492.4 1513.3,497.2 1513.2,502.0 1513.1,506.8 1512.9,511.6 1512.8,516.4 1512.7,521.2 1512.5,526.0 1512.4,530.8 1512.3,535.6 1512.2,540.4 1512.1,545.2 1512.0,550.0" fill="#fdae6b" fill-opacity="0.60" stroke="#b15928" stroke-width="1.2"/>
<line x1="1511.7" y1="362.6" x2="1511.7" y2="380.1" stroke="#333" stroke-width="1.5"/>
<line x1="1511.7" y1="407.3" x2="1511.7" y2="490.3" stroke="#333" stroke-width="1.5"/>
<line x1="1493.3" y1="362.6" x2="1530.0" y2="362.6" stroke="#333" stroke-width="1.5"/>
<line x1="1493.3" y1="490.3" x2="1530.0" y2="490.3" stroke="#333" stroke-width="1.5"/>
<rect x="1493.3" y="380.1" width="36.7" height="27.2" fill="#9ecae1" fill-opacity="0.92" stroke="#1f4e79" stroke-width="1.5"/>
<line x1="1493.3" y1="389.3" x2="1530.0" y2="389.3" stroke="#111" stroke-width="2"/>
</svg>