<svg xmlns="http://www.w3.org/2000/svg" width="1600" height="700" viewBox="0 0 1600 700">
<style>
text { font-family: sans-serif; fill: #111; }
.title { font-size: 18px; font-weight: 600; }
.axis { font-size: 12px; }
.tick { font-size: 11px; }
</style>
<text x="800.0" y="26" text-anchor="middle" class="title">Runtime by Rust Nightly (Violin + Box)</text>
<line x1="110" y1="70" x2="110" y2="550" stroke="#333" stroke-width="1.3"/>
<line x1="110" y1="550" x2="1560" y2="550" stroke="#333" stroke-width="1.3"/>
<text x="22" y="310.0" transform="rotate(-90 22 310.0)" text-anchor="middle" class="axis">Time (seconds)</text>
<line x1="110" y1="550.0" x2="1560" y2="550.0" stroke="#ddd" stroke-width="1"/>
<text x="102" y="554.0" text-anchor="end" class="tick">56.1</text>
<line x1="110" y1="454.0" x2="1560" y2="454.0" stroke="#ddd" stroke-width="1"/>
<text x="102" y="458.0" text-anchor="end" class="tick">69.7</text>
<line x1="110" y1="358.0" x2="1560" y2="358.0" stroke="#ddd" stroke-width="1"/>
<text x="102" y="362.0" text-anchor="end" class="tick">83.2</text>
<line x1="110" y1="262.0" x2="1560" y2="262.0" stroke="#ddd" stroke-width="1"/>
<text x="102" y="266.0" text-anchor="end" class="tick">96.8</text>
<line x1="110" y1="166.0" x2="1560" y2="166.0" stroke="#ddd" stroke-width="1"/>
<text x="102" y="170.0" text-anchor="end" class="tick">110.4</text>
<line x1="110" y1="70.0" x2="1560" y2="70.0" stroke="#ddd" stroke-width="1"/>
<text x="102" y="74.0" text-anchor="end" class="tick">123.9</text>
<line x1="158.3" y1="550" x2="158.3" y2="555" stroke="#333" stroke-width="1"/>
<text x="158.3" y="574" text-anchor="end" transform="rotate(-35 158.3 574)" class="tick">nightly-2020-01-30</text>
<line x1="255.0" y1="550" x2="255.0" y2="555" stroke="#333" stroke-width="1"/>
<text x="255.0" y="574" text-anchor="end" transform="rotate(-35 255.0 574)" class="tick">nightly-2020-06-01</text>
<line x1="351.7" y1="550" x2="351.7" y2="555" stroke="#333" stroke-width="1"/>
<text x="351.7" y="574" text-anchor="end" transform="rotate(-35 351.7 574)" class="tick">nightly-2021-03-01</text>
<line x1="448.3" y1="550" x2="448.3" y2="555" stroke="#333" stroke-width="1"/>
<text x="448.3" y="574" text-anchor="end" transform="rotate(-35 448.3 574)" class="tick">nightly-2021-06-01</text>
<line x1="545.0" y1="550" x2="545.0" y2="555" stroke="#333" stroke-width="1"/>
<text x="545.0" y="574" text-anchor="end" transform="rotate(-35 545.0 574)" class="tick">nightly-2021-08-01</text>
<line x1="641.7" y1="550" x2="641.7" y2="555" stroke="#333" stroke-width="1"/>
<text x="641.7" y="574" text-anchor="end" transform="rotate(-35 641.7 574)" class="tick">nightly-2022-09-01</text>
<line x1="738.3" y1="550" x2="738.3" y2="555" stroke="#333" stroke-width="1"/>
<text x="738.3" y="574" text-anchor="end" transform="rotate(-35 738.3 574)" class="tick">nightly-2023-01-01</text>
<line x1="835.0" y1="550" x2="835.0" y2="555" stroke="#333" stroke-width="1"/>
<text x="835.0" y="574" text-anchor="end" transform="rotate(-35 835.0 574)" class="tick">nightly-2023-06-01</text>
<line x1="931.7" y1="550" x2="931.7" y2="555" stroke="#333" stroke-width="1"/>
<text x="931.7" y="574" text-anchor="end" transform="rotate(-35 931.7 574)" class="tick">nightly-2024-06-01</text>
<line x1="1028.3" y1="550" x2="1028.3" y2="555" stroke="#333" stroke-width="1"/>
<text x="1028.3" y="574" text-anchor="end" transform="rotate(-35 1028.3 574)" class="tick">nightly-2024-12-01</text>
<line x1="1125.0" y1="550" x2="1125.0" y2="555" stroke="#333" stroke-width="1"/>
<text x="1125.0" y="574" text-anchor="end" transform="rotate(-35 1125.0 574)" class="tick">nightly-2025-06-01</text>
<line x1="1221.7" y1="550" x2="1221.7" y2="555" stroke="#333" stroke-width="1"/>
<text x="1221.7" y="574" text-anchor="end" transform="rotate(-35 1221.7 574)" class="tick">nightly-2025-09-01</text>
<line x1="1318.3" y1="550" x2="1318.3" y2="555" stroke="#333" stroke-width="1"/>
<text x="1318.3" y="574" text-anchor="end" transform="rotate(-35 1318.3 574)" class="tick">nightly-2025-12-01</text>
<line x1="1415.0" y1="550" x2="1415.0" y2="555" stroke="#333" stroke-width="1"/>
<text x="1415.0" y="574" text-anchor="end" transform="rotate(-35 1415.0 574)" class="tick">nightly-2026-01-01</text>
<line x1="1511.7" y1="550" x2="1511.7" y2="555" stroke="#333" stroke-width="1"/>
<text x="1511.7" y="574" text-anchor="end" transform="rotate(-35 1511.7 574)" class="tick">nightly-2026-02-24</text>
<polygon points="158.3,550.0 158.3,545.2 158.3,540.4 158.3,535.6 158.3,530.8 158.3,526.0 158.3,521.2 158.3,516.4 158.3,511.6 158.3,506.8 158.3,502.0 158.3,497.2 158.3,492.4 158.3,487.6 158.3,482.8 158.3,478.0 158.3,473.2 158.3,468.4 158.3,463.6 158.3,458.8 158.3,454.0 158.3,449.2 158.3,444.4 158.3,439.6 158.3,434.8 158.3,430.0 158.3,425.2 158.3,420.4 158.3,415.6 158.3,410.8 158.3,406.0 158.3,401.2 158.3,396.4 158.3,391.6 158.3,386.8 158.3,382.0 158.3,377.2 158.3,372.4 158.3,367.6 158.3,362.8 158.3,358.0 158.3,353.2 158.3,348.4 158.3,343.6 158.3,338.8 158.3,334.0 158.3,329.2 158.3,324.4 158.3,319.6 158.3,314.8 158.3,310.0 158.3,305.2 158.3,300.4 158.3,295.6 158.3,290.8 158.3,286.0 158.3,281.2 158.3,276.4 158.3,271.6 158.3,266.8 158.3,262.0 158.3,257.2 158.3,252.4 158.3,247.6 158.3,242.8 158.2,238.0 158.1,233.2 157.8,228.4 157.5,223.6 157.0,218.8 156.4,214.0 155.5,209.2 154.4,204.4 153.2,199.6 151.9,194.8 150.7,190.0 149.7,185.2 148.9,180.4 148.6,175.6 148.8,170.8 149.4,166.0 150.3,161.2 151.5,156.4 152.7,151.6 153.8,146.8 154.8,142.0 155.6,137.2 156.1,132.4 156.4,127.6 156.5,122.8 156.5,118.0 156.4,113.2 156.3,108.4 156.3,103.6 156.4,98.8 156.5,94.0 156.7,89.2 157.0,84.4 157.2,79.6 157.5,74.8 157.7,70.0 158.9,70.0 159.2,74.8 159.4,79.6 159.7,84.4 159.9,89.2 160.1,94.0 160.3,98.8 160.3,103.6 160.3,108.4 160.3,113.2 160.2,118.0 160.2,122.8 160.3,127.6 160.6,132.4 161.1,137.2 161.9,142.0 162.8,146.8 164.0,151.6 165.2,156.4 166.4,161.2 167.3,166.0 167.9,170.8 168.0,175.6 167.7,180.4 167.0,185.2 166.0,190.0 164.7,194.8 163.4,199.6 162.2,204.4 161.2,209.2 160.3,214.0 159.6,218.8 159.1,223.6 158.8,228.4 158.6,233.2 158.5,238.0 158.4,242.8 158.4,247.6 158.4,252.4 158.3,257.2 158.3,262.0 158.3,266.8 158.3,271.6 158.3,276.4 158.3,281.2 158.3,286.0 158.3,290.8 158.3,295.6 158.3,300.4 158.3,305.2 158.3,310.0 158.3,314.8 158.3,319.6 158.3,324.4 158.3,329.2 158.3,334.0 158.3,338.8 158.3,343.6 158.3,348.4 158.3,353.2 158.3,358.0 158.3,362.8 158.3,367.6 158.3,372.4 158.3,377.2 158.3,382.0 158.3,386.8 158.3,391.6 158.3,396.4 158.3,401.2 158.3,406.0 158.3,410.8 158.3,415.6 158.3,420.4 158.3,425.2 158.3,430.0 158.3,434.8 158.3,439.6 158.3,444.4 158.3,449.2 158.3,454.0 158.3,458.8 158.3,463.6 158.3,468.4 158.3,473.2 158.3,478.0 158.3,482.8 158.3,487.6 158.3,492.4 158.3,497.2 158.3,502.0 158.3,506.8 158.3,511.6 158.3,516.4 158.3,521.2 158.3,526.0 158.3,530.8 158.3,535.6 158.3,540.4 158.3,545.2 158.3,550.0" fill="#fdae6b" fill-opacity="0.60" stroke="#b15928" stroke-width="1.2"/>
<line x1="158.3" y1="103.1" x2="158.3" y2="172.7" stroke="#333" stroke-width="1.5"/>
<line x1="158.3" y1="176.3" x2="158.3" y2="177.8" stroke="#333" stroke-width="1.5"/>
<line x1="140.0" y1="103.1" x2="176.7" y2="103.1" stroke="#333" stroke-width="1.5"/>
<line x1="140.0" y1="177.8" x2="176.7" y2="177.8" stroke="#333" stroke-width="1.5"/>
<rect x="140.0" y="172.7" width="36.7" height="3.6" fill="#9ecae1" fill-opacity="0.92" stroke="#1f4e79" stroke-width="1.5"/>
<line x1="140.0" y1="173.4" x2="176.7" y2="173.4" stroke="#111" stroke-width="2"/>
<polygon points="255.0,550.0 255.0,545.2 255.0,540.4 255.0,535.6 255.0,530.8 255.0,526.0 255.0,521.2 255.0,516.4 255.0,511.6 255.0,506.8 255.0,502.0 255.0,497.2 255.0,492.4 255.0,487.6 255.0,482.8 255.0,478.0 255.0,473.2 255.0,468.4 255.0,463.6 255.0,458.8 255.0,454.0 255.0,449.2 255.0,444.4 255.0,439.6 255.0,434.8 255.0,430.0 255.0,425.2 255.0,420.4 255.0,415.6 255.0,410.8 255.0,406.0 255.0,401.2 255.0,396.4 255.0,391.6 255.0,386.8 255.0,382.0 255.0,377.2 255.0,372.4 255.0,367.6 255.0,362.8 255.0,358.0 255.0,353.2 255.0,348.4 255.0,343.6 255.0,338.8 255.0,334.0 255.0,329.2 255.0,324.4 255.0,319.6 255.0,314.8 255.0,310.0 255.0,305.2 255.0,300.4 255.0,295.6 255.0,290.8 255.0,286.0 255.0,281.2 255.0,276.4 255.0,271.6 255.0,266.8 255.0,262.0 255.0,257.2 254.9,252.4 254.9,247.6 254.8,242.8 254.6,238.0 254.4,233.2 254.1,228.4 253.6,223.6 253.1,218.8 252.4,214.0 251.7,209.2 250.9,204.4 250.1,199.6 249.4,194.8 248.7,190.0 248.2,185.2 247.9,180.4 247.7,175.6 247.6,170.8 247.7,166.0 247.9,161.2 248.1,156.4 248.3,151.6 248.6,146.8 249.0,142.0 249.4,137.2 249.9,132.4 250.4,127.6 251.1,122.8 251.7,118.0 252.4,113.2 253.0,108.4 253.5,103.6 254.0,98.8 254.3,94.0 254.6,89.2 254.7,84.4 254.8,79.6 254.9,74.8 255.0,70.0 255.0,70.0 255.1,74.8 255.2,79.6 255.3,84.4 255.4,89.2 255.7,94.0 256.0,98.8 256.5,103.6 257.0,108.4 257.6,113.2 258.3,118.0 258.9,122.8 259.6,127.6 260.1,132.4 260.6,137.2 261.0,142.0 261.4,146.8 261.7,151.6 261.9,156.4 262.1,161.2 262.3,166.0 262.4,170.8 262.3,175.6 262.1,180.4 261.8,185.2 261.3,190.0 260.6,194.8 259.9,199.6 259.1,204.4 258.3,209.2 257.6,214.0 256.9,218.8 256.4,223.6 255.9,228.4 255.6,233.2 255.4,238.0 255.2,242.8 255.1,247.6 255.1,252.4 255.0,257.2 255.0,262.0 255.0,266.8 255.0,271.6 255.0,276.4 255.0,281.2 255.0,286.0 255.0,290.8 255.0,295.6 255.0,300.4 255.0,305.2 255.0,310.0 255.0,314.8 255.0,319.6 255.0,324.4 255.0,329.2 255.0,334.0 255.0,338.8 255.0,343.6 255.0,348.4 255.0,353.2 255.0,358.0 255.0,362.8 255.0,367.6 255.0,372.4 255.0,377.2 255.0,382.0 255.0,386.8 255.0,391.6 255.0,396.4 255.0,401.2 255.0,406.0 255.0,410.8 255.0,415.6 255.0,420.4 255.0,425.2 255.0,430.0 255.0,434.8 255.0,439.6 255.0,444.4 255.0,449.2 255.0,454.0 255.0,458.8 255.0,463.6 255.0,468.4 255.0,473.2 255.0,478.0 255.0,482.8 255.0,487.6 255.0,492.4 255.0,497.2 255.0,502.0 255.0,506.8 255.0,511.6 255.0,516.4 255.0,521.2 255.0,526.0 255.0,530.8 255.0,535.6 255.0,540.4 255.0,545.2 255.0,550.0" fill="#fdae6b" fill-opacity="0.60" stroke="#b15928" stroke-width="1.2"/>
<line x1="255.0" y1="129.0" x2="255.0" y2="146.0" stroke="#333" stroke-width="1.5"/>
<line x1="255.0" y1="179.4" x2="255.0" y2="196.6" stroke="#333" stroke-width="1.5"/>
<line x1="236.6" y1="129.0" x2="273.4" y2="129.0" stroke="#333" stroke-width="1.5"/>
<line x1="236.6" y1="196.6" x2="273.4" y2="196.6" stroke="#333" stroke-width="1.5"/>
<rect x="236.6" y="146.0" width="36.7" height="33.4" fill="#9ecae1" fill-opacity="0.92" stroke="#1f4e79" stroke-width="1.5"/>
<line x1="236.6" y1="169.0" x2="273.4" y2="169.0" stroke="#111" stroke-width="2"/>
<polygon points="351.7,550.0 351.7,545.2 351.7,540.4 351.7,535.6 351.7,530.8 351.7,526.0 351.7,521.2 351.7,516.4 351.7,511.6 351.7,506.8 351.7,502.0 351.7,497.2 351.7,492.4 351.7,487.6 351.7,482.8 351.7,478.0 351.7,473.2 351.7,468.4 351.7,463.6 351.7,458.8 351.7,454.0 351.7,449.2 351.7,444.4 351.7,439.6 351.7,434.8 351.7,430.0 351.7,425.2 351.7,420.4 351.7,415.6 351.7,410.8 351.7,406.0 351.7,401.2 351.7,396.4 351.7,391.6 351.7,386.8 351.7,382.0 351.7,377.2 351.7,372.4 351.7,367.6 351.7,362.8 351.7,358.0 351.7,353.2 351.7,348.4 351.7,343.6 351.6,338.8 351.6,334.0 351.4,329.2 351.2,324.4 350.8,319.6 350.1,314.8 349.2,310.0 348.0,305.2 346.6,300.4 345.4,295.6 344.3,290.8 343.5,286.0 343.1,281.2 343.0,276.4 342.9,271.6 342.9,266.8 342.8,262.0 342.8,257.2 343.1,252.4 343.6,247.6 344.4,242.8 345.6,238.0 346.9,233.2 348.2,228.4 349.3,223.6 350.2,218.8 350.8,214.0 351.2,209.2 351.4,204.4 351.6,199.6 351.6,194.8 351.7,190.0 351.7,185.2 351.7,180.4 351.7,175.6 351.7,170.8 351.7,166.0 351.7,161.2 351.7,156.4 351.7,151.6 351.7,146.8 351.7,142.0 351.7,137.2 351.7,132.4 351.7,127.6 351.7,122.8 351.7,118.0 351.7,113.2 351.7,108.4 351.7,103.6 351.7,98.8 351.7,94.0 351.7,89.2 351.7,84.4 351.7,79.6 351.7,74.8 351.7,70.0 351.7,70.0 351.7,74.8 351.7,79.6 351.7,84.4 351.7,89.2 351.7,94.0 351.7,98.8 351.7,103.6 351.7,108.4 351.7,113.2 351.7,118.0 351.7,122.8 351.7,127.6 351.7,132.4 351.7,137.2 351.7,142.0 351.7,146.8 351.7,151.6 351.7,156.4 351.7,161.2 351.7,166.0 351.7,170.8 351.7,175.6 351.7,180.4 351.7,185.2 351.7,190.0 351.7,194.8 351.8,199.6 351.9,204.4 352.1,209.2 352.5,214.0 353.2,218.8 354.0,223.6 355.2,228.4 356.5,233.2 357.8,238.0 358.9,242.8 359.8,247.6 360.3,252.4 360.5,257.2 360.5,262.0 360.5,266.8 360.4,271.6 360.4,276.4 360.2,281.2 359.8,286.0 359.0,290.8 358.0,295.6 356.7,300.4 355.4,305.2 354.2,310.0 353.2,314.8 352.6,319.6 352.1,324.4 351.9,329.2 351.8,334.0 351.7,338.8 351.7,343.6 351.7,348.4 351.7,353.2 351.7,358.0 351.7,362.8 351.7,367.6 351.7,372.4 351.7,377.2 351.7,382.0 351.7,386.8 351.7,391.6 351.7,396.4 351.7,401.2 351.7,406.0 351.7,410.8 351.7,415.6 351.7,420.4 351.7,425.2 351.7,430.0 351.7,434.8 351.7,439.6 351.7,444.4 351.7,449.2 351.7,454.0 351.7,458.8 351.7,463.6 351.7,468.4 351.7,473.2 351.7,478.0 351.7,482.8 351.7,487.6 351.7,492.4 351.7,497.2 351.7,502.0 351.7,506.8 351.7,511.6 351.7,516.4 351.7,521.2 351.7,526.0 351.7,530.8 351.7,535.6 351.7,540.4 351.7,545.2 351.7,550.0" fill="#fdae6b" fill-opacity="0.60" stroke="#b15928" stroke-width="1.2"/>
<line x1="351.7" y1="242.8" x2="351.7" y2="250.8" stroke="#333" stroke-width="1.5"/>
<line x1="351.7" y1="287.1" x2="351.7" y2="288.7" stroke="#333" stroke-width="1.5"/>
<line x1="333.3" y1="242.8" x2="370.0" y2="242.8" stroke="#333" stroke-width="1.5"/>
<line x1="333.3" y1="288.7" x2="370.0" y2="288.7" stroke="#333" stroke-width="1.5"/>
<rect x="333.3" y="250.8" width="36.7" height="36.3" fill="#9ecae1" fill-opacity="0.92" stroke="#1f4e79" stroke-width="1.5"/>
<line x1="333.3" y1="265.9" x2="370.0" y2="265.9" stroke="#111" stroke-width="2"/>
<polygon points="448.3,550.0 448.3,545.2 448.3,540.4 448.3,535.6 448.3,530.8 448.3,526.0 448.3,521.2 448.3,516.4 448.3,511.6 448.3,506.8 448.3,502.0 448.3,497.2 448.3,492.4 448.3,487.6 448.3,482.8 448.3,478.0 448.3,473.2 448.3,468.4 448.3,463.6 448.3,458.8 448.3,454.0 448.3,449.2 448.3,444.4 448.3,439.6 448.3,434.8 448.3,430.0 448.3,425.2 448.3,420.4 448.3,415.6 448.3,410.8 448.2,406.0 448.2,401.2 448.1,396.4 447.9,391.6 447.6,386.8 447.3,382.0 446.8,377.2 446.3,372.4 445.6,367.6 444.9,362.8 444.1,358.0 443.4,353.2 442.7,348.4 442.2,343.6 441.8,338.8 441.6,334.0 441.5,329.2 441.5,324.4 441.7,319.6 441.9,314.8 442.2,310.0 442.4,305.2 442.7,300.4 443.0,295.6 443.3,290.8 443.6,286.0 443.9,281.2 444.3,276.4 444.7,271.6 445.2,266.8 445.6,262.0 446.1,257.2 446.6,252.4 447.0,247.6 447.3,242.8 447.6,238.0 447.8,233.2 448.0,228.4 448.1,223.6 448.2,218.8 448.3,214.0 448.3,209.2 448.3,204.4 448.3,199.6 448.3,194.8 448.3,190.0 448.3,185.2 448.3,180.4 448.3,175.6 448.3,170.8 448.3,166.0 448.3,161.2 448.3,156.4 448.3,151.6 448.3,146.8 448.3,142.0 448.3,137.2 448.3,132.4 448.3,127.6 448.3,122.8 448.3,118.0 448.3,113.2 448.3,108.4 448.3,103.6 448.3,98.8 448.3,94.0 448.3,89.2 448.3,84.4 448.3,79.6 448.3,74.8 448.3,70.0 448.3,70.0 448.3,74.8 448.3,79.6 448.3,84.4 448.3,89.2 448.3,94.0 448.3,98.8 448.3,103.6 448.3,108.4 448.3,113.2 448.3,118.0 448.3,122.8 448.3,127.6 448.3,132.4 448.3,137.2 448.3,142.0 448.3,146.8 448.3,151.6 448.3,156.4 448.3,161.2 448.3,166.0 448.3,170.8 448.3,175.6 448.3,180.4 448.3,185.2 448.3,190.0 448.3,194.8 448.3,199.6 448.4,204.4 448.4,209.2 448.4,214.0 448.5,218.8 448.5,223.6 448.7,228.4 448.8,233.2 449.1,238.0 449.4,242.8 449.7,247.6 450.1,252.4 450.6,257.2 451.0,262.0 451.5,266.8 452.0,271.6 452.4,276.4 452.8,281.2 453.1,286.0 453.4,290.8 453.7,295.6 454.0,300.4 454.2,305.2 454.5,310.0 454.8,314.8 455.0,319.6 455.1,324.4 455.2,329.2 455.1,334.0 454.9,338.8 454.5,343.6 453.9,348.4 453.3,353.2 452.5,358.0 451.8,362.8 451.0,367.6 450.4,372.4 449.8,377.2 449.4,382.0 449.0,386.8 448.8,391.6 448.6,396.4 448.5,401.2 448.4,406.0 448.4,410.8 448.4,415.6 448.3,420.4 448.3,425.2 448.3,430.0 448.3,434.8 448.3,439.6 448.3,444.4 448.3,449.2 448.3,454.0 448.3,458.8 448.3,463.6 448.3,468.4 448.3,473.2 448.3,478.0 448.3,482.8 448.3,487.6 448.3,492.4 448.3,497.2 448.3,502.0 448.3,506.8 448.3,511.6 448.3,516.4 448.3,521.2 448.3,526.0 448.3,530.8 448.3,535.6 448.3,540.4 448.3,545.2 448.3,550.0" fill="#fdae6b" fill-opacity="0.60" stroke="#b15928" stroke-width="1.2"/>
<line x1="448.3" y1="273.7" x2="448.3" y2="297.7" stroke="#333" stroke-width="1.5"/>
<line x1="448.3" y1="341.4" x2="448.3" y2="343.2" stroke="#333" stroke-width="1.5"/>
<line x1="430.0" y1="273.7" x2="466.7" y2="273.7" stroke="#333" stroke-width="1.5"/>
<line x1="430.0" y1="343.2" x2="466.7" y2="343.2" stroke="#333" stroke-width="1.5"/>
<rect x="430.0" y="297.7" width="36.7" height="43.7" fill="#9ecae1" fill-opacity="0.92" stroke="#1f4e79" stroke-width="1.5"/>
<line x1="430.0" y1="321.4" x2="466.7" y2="321.4" stroke="#111" stroke-width="2"/>
<polygon points="545.0,550.0 545.0,545.2 545.0,540.4 545.0,535.6 545.0,530.8 545.0,526.0 545.0,521.2 545.0,516.4 545.0,511.6 545.0,506.8 545.0,502.0 545.0,497.2 545.0,492.4 545.0,487.6 545.0,482.8 545.0,478.0 545.0,473.2 545.0,468.4 545.0,463.6 545.0,458.8 545.0,454.0 545.0,449.2 545.0,444.4 545.0,439.6 545.0,434.8 545.0,430.0 545.0,425.2 545.0,420.4 545.0,415.6 545.0,410.8 545.0,406.0 545.0,401.2 545.0,396.4 545.0,391.6 545.0,386.8 544.9,382.0 544.9,377.2 544.8,372.4 544.5,367.6 544.2,362.8 543.7,358.0 543.0,353.2 542.2,348.4 541.2,343.6 540.2,338.8 539.1,334.0 538.2,329.2 537.4,324.4 536.9,319.6 536.5,314.8 536.4,310.0 536.4,305.2 536.6,300.4 536.8,295.6 537.0,290.8 537.5,286.0 538.1,281.2 538.9,276.4 539.9,271.6 541.0,266.8 542.0,262.0 542.9,257.2 543.7,252.4 544.2,247.6 544.6,242.8 544.8,238.0 544.9,233.2 544.9,228.4 545.0,223.6 545.0,218.8 545.0,214.0 545.0,209.2 545.0,204.4 545.0,199.6 545.0,194.8 545.0,190.0 545.0,185.2 545.0,180.4 545.0,175.6 545.0,170.8 545.0,166.0 545.0,161.2 545.0,156.4 545.0,151.6 545.0,146.8 545.0,142.0 545.0,137.2 545.0,132.4 545.0,127.6 545.0,122.8 545.0,118.0 545.0,113.2 545.0,108.4 545.0,103.6 545.0,98.8 545.0,94.0 545.0,89.2 545.0,84.4 545.0,79.6 545.0,74.8 545.0,70.0 545.0,70.0 545.0,74.8 545.0,79.6 545.0,84.4 545.0,89.2 545.0,94.0 545.0,98.8 545.0,103.6 545.0,108.4 545.0,113.2 545.0,118.0 545.0,122.8 545.0,127.6 545.0,132.4 545.0,137.2 545.0,142.0 545.0,146.8 545.0,151.6 545.0,156.4 545.0,161.2 545.0,166.0 545.0,170.8 545.0,175.6 545.0,180.4 545.0,185.2 545.0,190.0 545.0,194.8 545.0,199.6 545.0,204.4 545.0,209.2 545.0,214.0 545.0,218.8 545.0,223.6 545.1,228.4 545.1,233.2 545.2,238.0 545.4,242.8 545.8,247.6 546.3,252.4 547.1,257.2 548.0,262.0 549.0,266.8 550.1,271.6 551.1,276.4 551.9,281.2 552.5,286.0 553.0,290.8 553.2,295.6 553.4,300.4 553.6,305.2 553.6,310.0 553.5,314.8 553.1,319.6 552.6,324.4 551.8,329.2 550.9,334.0 549.8,338.8 548.8,343.6 547.8,348.4 547.0,353.2 546.3,358.0 545.8,362.8 545.5,367.6 545.2,372.4 545.1,377.2 545.1,382.0 545.0,386.8 545.0,391.6 545.0,396.4 545.0,401.2 545.0,406.0 545.0,410.8 545.0,415.6 545.0,420.4 545.0,425.2 545.0,430.0 545.0,434.8 545.0,439.6 545.0,444.4 545.0,449.2 545.0,454.0 545.0,458.8 545.0,463.6 545.0,468.4 545.0,473.2 545.0,478.0 545.0,482.8 545.0,487.6 545.0,492.4 545.0,497.2 545.0,502.0 545.0,506.8 545.0,511.6 545.0,516.4 545.0,521.2 545.0,526.0 545.0,530.8 545.0,535.6 545.0,540.4 545.0,545.2 545.0,550.0" fill="#fdae6b" fill-opacity="0.60" stroke="#b15928" stroke-width="1.2"/>
<line x1="545.0" y1="278.6" x2="545.0" y2="286.8" stroke="#333" stroke-width="1.5"/>
<line x1="545.0" y1="317.2" x2="545.0" y2="333.4" stroke="#333" stroke-width="1.5"/>
<line x1="526.6" y1="278.6" x2="563.4" y2="278.6" stroke="#333" stroke-width="1.5"/>
<line x1="526.6" y1="333.4" x2="563.4" y2="333.4" stroke="#333" stroke-width="1.5"/>
<rect x="526.6" y="286.8" width="36.7" height="30.4" fill="#9ecae1" fill-opacity="0.92" stroke="#1f4e79" stroke-width="1.5"/>
<line x1="526.6" y1="308.6" x2="563.4" y2="308.6" stroke="#111" stroke-width="2"/>
<polygon points="641.7,550.0 641.7,545.2 641.7,540.4 641.7,535.6 641.7,530.8 641.7,526.0 641.7,521.2 641.7,516.4 641.7,511.6 641.7,506.8 641.7,502.0 641.7,497.2 641.7,492.4 641.7,487.6 641.7,482.8 641.7,478.0 641.7,473.2 641.7,468.4 641.7,463.6 641.7,458.8 641.7,454.0 641.7,449.2 641.7,444.4 641.7,439.6 641.7,434.8 641.7,430.0 641.7,425.2 641.7,420.4 641.2,415.6 636.5,410.8 618.8,406.0 601.1,401.2 611.9,396.4 627.8,391.6 630.5,386.8 634.8,382.0 639.9,377.2 641.5,372.4 641.7,367.6 641.7,362.8 641.7,358.0 641.7,353.2 641.7,348.4 641.7,343.6 641.7,338.8 641.7,334.0 641.7,329.2 641.7,324.4 641.7,319.6 641.7,314.8 641.7,310.0 641.7,305.2 641.7,300.4 641.7,295.6 641.7,290.8 641.7,286.0 641.7,281.2 641.7,276.4 641.7,271.6 641.7,266.8 641.7,262.0 641.7,257.2 641.7,252.4 641.7,247.6 641.7,242.8 641.7,238.0 641.7,233.2 641.7,228.4 641.7,223.6 641.7,218.8 641.7,214.0 641.7,209.2 641.7,204.4 641.7,199.6 641.7,194.8 641.7,190.0 641.7,185.2 641.7,180.4 641.7,175.6 641.7,170.8 641.7,166.0 641.7,161.2 641.7,156.4 641.7,151.6 641.7,146.8 641.7,142.0 641.7,137.2 641.7,132.4 641.7,127.6 641.7,122.8 641.7,118.0 641.7,113.2 641.7,108.4 641.7,103.6 641.7,98.8 641.7,94.0 641.7,89.2 641.7,84.4 641.7,79.6 641.7,74.8 641.7,70.0 641.7,70.0 641.7,74.8 641.7,79.6 641.7,84.4 641.7,89.2 641.7,94.0 641.7,98.8 641.7,103.6 641.7,108.4 641.7,113.2 641.7,118.0 641.7,122.8 641.7,127.6 641.7,132.4 641.7,137.2 641.7,142.0 641.7,146.8 641.7,151.6 641.7,156.4 641.7,161.2 641.7,166.0 641.7,170.8 641.7,175.6 641.7,180.4 641.7,185.2 641.7,190.0 641.7,194.8 641.7,199.6 641.7,204.4 641.7,209.2 641.7,214.0 641.7,218.8 641.7,223.6 641.7,228.4 641.7,233.2 641.7,238.0 641.7,242.8 641.7,247.6 641.7,252.4 641.7,257.2 641.7,262.0 641.7,266.8 641.7,271.6 641.7,276.4 641.7,281.2 641.7,286.0 641.7,290.8 641.7,295.6 641.7,300.4 641.7,305.2 641.7,310.0 641.7,314.8 641.7,319.6 641.7,324.4 641.7,329.2 641.7,334.0 641.7,338.8 641.7,343.6 641.7,348.4 641.7,353.2 641.7,358.0 641.7,362.8 641.7,367.6 641.8,372.4 643.4,377.2 648.6,382.0 652.8,386.8 655.6,391.6 671.4,396.4 682.3,401.2 664.5,406.0 646.8,410.8 642.1,415.6 641.7,420.4 641.7,425.2 641.7,430.0 641.7,434.8 641.7,439.6 641.7,444.4 641.7,449.2 641.7,454.0 641.7,458.8 641.7,463.6 641.7,468.4 641.7,473.2 641.7,478.0 641.7,482.8 641.7,487.6 641.7,492.4 641.7,497.2 641.7,502.0 641.7,506.8 641.7,511.6 641.7,516.4 641.7,521.2 641.7,526.0 641.7,530.8 641.7,535.6 641.7,540.4 641.7,545.2 641.7,550.0" fill="#fdae6b" fill-opacity="0.60" stroke="#b15928" stroke-width="1.2"/>
<line x1="641.7" y1="386.5" x2="641.7" y2="399.7" stroke="#333" stroke-width="1.5"/>
<line x1="641.7" y1="401.0" x2="641.7" y2="401.9" stroke="#333" stroke-width="1.5"/>
<line x1="623.3" y1="386.5" x2="660.0" y2="386.5" stroke="#333" stroke-width="1.5"/>
<line x1="623.3" y1="401.9" x2="660.0" y2="401.9" stroke="#333" stroke-width="1.5"/>
<rect x="623.3" y="399.7" width="36.7" height="1.2" fill="#9ecae1" fill-opacity="0.92" stroke="#1f4e79" stroke-width="1.5"/>
<line x1="623.3" y1="400.0" x2="660.0" y2="400.0" stroke="#111" stroke-width="2"/>
<polygon points="738.3,550.0 738.3,545.2 738.3,540.4 738.3,535.6 738.3,530.8 738.3,526.0 738.3,521.2 738.3,516.4 738.3,511.6 738.3,506.8 738.3,502.0 738.3,497.2 738.3,492.4 738.3,487.6 738.2,482.8 738.1,478.0 737.9,473.2 737.6,468.4 737.2,463.6 736.6,458.8 735.9,454.0 735.0,449.2 734.0,444.4 733.1,439.6 732.2,434.8 731.5,430.0 731.1,425.2 730.9,420.4 731.0,415.6 731.2,410.8 731.6,406.0 731.9,401.2 732.2,396.4 732.4,391.6 732.5,386.8 732.6,382.0 732.8,377.2 733.0,372.4 733.5,367.6 734.0,362.8 734.7,358.0 735.4,353.2 736.0,348.4 736.6,343.6 737.1,338.8 737.5,334.0 737.8,329.2 738.0,324.4 738.2,319.6 738.2,314.8 738.3,310.0 738.3,305.2 738.3,300.4 738.3,295.6 738.3,290.8 738.3,286.0 738.3,281.2 738.3,276.4 738.3,271.6 738.3,266.8 738.3,262.0 738.3,257.2 738.3,252.4 738.3,247.6 738.3,242.8 738.3,238.0 738.3,233.2 738.3,228.4 738.3,223.6 738.3,218.8 738.3,214.0 738.3,209.2 738.3,204.4 738.3,199.6 738.3,194.8 738.3,190.0 738.3,185.2 738.3,180.4 738.3,175.6 738.3,170.8 738.3,166.0 738.3,161.2 738.3,156.4 738.3,151.6 738.3,146.8 738.3,142.0 738.3,137.2 738.3,132.4 738.3,127.6 738.3,122.8 738.3,118.0 738.3,113.2 738.3,108.4 738.3,103.6 738.3,98.8 738.3,94.0 738.3,89.2 738.3,84.4 738.3,79.6 738.3,74.8 738.3,70.0 738.3,70.0 738.3,74.8 738.3,79.6 738.3,84.4 738.3,89.2 738.3,94.0 738.3,98.8 738.3,103.6 738.3,108.4 738.3,113.2 738.3,118.0 738.3,122.8 738.3,127.6 738.3,132.4 738.3,137.2 738.3,142.0 738.3,146.8 738.3,151.6 738.3,156.4 738.3,161.2 738.3,166.0 738.3,170.8 738.3,175.6 738.3,180.4 738.3,185.2 738.3,190.0 738.3,194.8 738.3,199.6 738.3,204.4 738.3,209.2 738.3,214.0 738.3,218.8 738.3,223.6 738.3,228.4 738.3,233.2 738.3,238.0 738.3,242.8 738.3,247.6 738.3,252.4 738.3,257.2 738.3,262.0 738.3,266.8 738.3,271.6 738.3,276.4 738.3,281.2 738.3,286.0 738.3,290.8 738.3,295.6 738.3,300.4 738.4,305.2 738.4,310.0 738.4,314.8 738.5,319.6 738.6,324.4 738.8,329.2 739.1,334.0 739.5,338.8 740.0,343.6 740.6,348.4 741.3,353.2 742.0,358.0 742.7,362.8 743.2,367.6 743.6,372.4 743.9,377.2 744.1,382.0 744.2,386.8 744.3,391.6 744.5,396.4 744.8,401.2 745.1,406.0 745.4,410.8 745.7,415.6 745.8,420.4 745.6,425.2 745.1,430.0 744.4,434.8 743.6,439.6 742.6,444.4 741.7,449.2 740.8,454.0 740.1,458.8 739.5,463.6 739.1,468.4 738.8,473.2 738.6,478.0 738.5,482.8 738.4,487.6 738.4,492.4 738.4,497.2 738.3,502.0 738.3,506.8 738.3,511.6 738.3,516.4 738.3,521.2 738.3,526.0 738.3,530.8 738.3,535.6 738.3,540.4 738.3,545.2 738.3,550.0" fill="#fdae6b" fill-opacity="0.60" stroke="#b15928" stroke-width="1.2"/>
<line x1="738.3" y1="370.8" x2="738.3" y2="377.6" stroke="#333" stroke-width="1.5"/>
<line x1="738.3" y1="425.9" x2="738.3" y2="427.7" stroke="#333" stroke-width="1.5"/>
<line x1="720.0" y1="370.8" x2="756.7" y2="370.8" stroke="#333" stroke-width="1.5"/>
<line x1="720.0" y1="427.7" x2="756.7" y2="427.7" stroke="#333" stroke-width="1.5"/>
<rect x="720.0" y="377.6" width="36.7" height="48.3" fill="#9ecae1" fill-opacity="0.92" stroke="#1f4e79" stroke-width="1.5"/>
<line x1="720.0" y1="414.2" x2="756.7" y2="414.2" stroke="#111" stroke-width="2"/>
<polygon points="835.0,550.0 835.0,545.2 835.0,540.4 835.0,535.6 835.0,530.8 835.0,526.0 835.0,521.2 834.9,516.4 834.8,511.6 834.6,506.8 834.2,502.0 833.5,497.2 832.6,492.4 831.6,487.6 830.7,482.8 829.8,478.0 828.8,473.2 827.5,468.4 825.8,463.6 823.8,458.8 822.2,454.0 821.5,449.2 821.9,444.4 823.4,439.6 825.5,434.8 827.7,430.0 829.8,425.2 831.6,420.4 833.0,415.6 833.9,410.8 834.5,406.0 834.8,401.2 834.9,396.4 835.0,391.6 835.0,386.8 835.0,382.0 835.0,377.2 835.0,372.4 835.0,367.6 835.0,362.8 835.0,358.0 835.0,353.2 835.0,348.4 835.0,343.6 835.0,338.8 835.0,334.0 835.0,329.2 835.0,324.4 835.0,319.6 835.0,314.8 835.0,310.0 835.0,305.2 835.0,300.4 835.0,295.6 835.0,290.8 835.0,286.0 835.0,281.2 835.0,276.4 835.0,271.6 835.0,266.8 835.0,262.0 835.0,257.2 835.0,252.4 835.0,247.6 835.0,242.8 835.0,238.0 835.0,233.2 835.0,228.4 835.0,223.6 835.0,218.8 835.0,214.0 835.0,209.2 835.0,204.4 835.0,199.6 835.0,194.8 835.0,190.0 835.0,185.2 835.0,180.4 835.0,175.6 835.0,170.8 835.0,166.0 835.0,161.2 835.0,156.4 835.0,151.6 835.0,146.8 835.0,142.0 835.0,137.2 835.0,132.4 835.0,127.6 835.0,122.8 835.0,118.0 835.0,113.2 835.0,108.4 835.0,103.6 835.0,98.8 835.0,94.0 835.0,89.2 835.0,84.4 835.0,79.6 835.0,74.8 835.0,70.0 835.0,70.0 835.0,74.8 835.0,79.6 835.0,84.4 835.0,89.2 835.0,94.0 835.0,98.8 835.0,103.6 835.0,108.4 835.0,113.2 835.0,118.0 835.0,122.8 835.0,127.6 835.0,132.4 835.0,137.2 835.0,142.0 835.0,146.8 835.0,151.6 835.0,156.4 835.0,161.2 835.0,166.0 835.0,170.8 835.0,175.6 835.0,180.4 835.0,185.2 835.0,190.0 835.0,194.8 835.0,199.6 835.0,204.4 835.0,209.2 835.0,214.0 835.0,218.8 835.0,223.6 835.0,228.4 835.0,233.2 835.0,238.0 835.0,242.8 835.0,247.6 835.0,252.4 835.0,257.2 835.0,262.0 835.0,266.8 835.0,271.6 835.0,276.4 835.0,281.2 835.0,286.0 835.0,290.8 835.0,295.6 835.0,300.4 835.0,305.2 835.0,310.0 835.0,314.8 835.0,319.6 835.0,324.4 835.0,329.2 835.0,334.0 835.0,338.8 835.0,343.6 835.0,348.4 835.0,353.2 835.0,358.0 835.0,362.8 835.0,367.6 835.0,372.4 835.0,377.2 835.0,382.0 835.0,386.8 835.0,391.6 835.1,396.4 835.2,401.2 835.5,406.0 836.1,410.8 837.0,415.6 838.4,420.4 840.2,425.2 842.3,430.0 844.5,434.8 846.6,439.6 848.1,444.4 848.5,449.2 847.8,454.0 846.2,458.8 844.2,463.6 842.5,468.4 841.2,473.2 840.2,478.0 839.3,482.8 838.4,487.6 837.4,492.4 836.5,497.2 835.8,502.0 835.4,506.8 835.2,511.6 835.1,516.4 835.0,521.2 835.0,526.0 835.0,530.8 835.0,535.6 835.0,540.4 835.0,545.2 835.0,550.0" fill="#fdae6b" fill-opacity="0.60" stroke="#b15928" stroke-width="1.2"/>
<line x1="835.0" y1="432.4" x2="835.0" y2="448.4" stroke="#333" stroke-width="1.5"/>
<line x1="835.0" y1="453.8" x2="835.0" y2="479.1" stroke="#333" stroke-width="1.5"/>
<line x1="816.6" y1="432.4" x2="853.4" y2="432.4" stroke="#333" stroke-width="1.5"/>
<line x1="816.6" y1="479.1" x2="853.4" y2="479.1" stroke="#333" stroke-width="1.5"/>
<rect x="816.6" y="448.4" width="36.7" height="5.4" fill="#9ecae1" fill-opacity="0.92" stroke="#1f4e79" stroke-width="1.5"/>
<line x1="816.6" y1="449.5" x2="853.4" y2="449.5" stroke="#111" stroke-width="2"/>
<polygon points="931.3,550.0 931.1,545.2 930.9,540.4 930.7,535.6 930.4,530.8 930.0,526.0 929.7,521.2 929.3,516.4 928.9,511.6 928.5,506.8 928.1,502.0 927.8,497.2 927.5,492.4 927.3,487.6 927.1,482.8 927.0,478.0 926.9,473.2 926.9,468.4 926.9,463.6 926.9,458.8 926.9,454.0 926.9,449.2 926.9,444.4 926.9,439.6 927.0,434.8 927.0,430.0 927.1,425.2 927.2,420.4 927.3,415.6 927.5,410.8 927.8,406.0 928.1,401.2 928.4,396.4 928.8,391.6 929.2,386.8 929.6,382.0 929.9,377.2 930.3,372.4 930.6,367.6 930.8,362.8 931.0,358.0 931.2,353.2 931.3,348.4 931.4,343.6 931.5,338.8 931.6,334.0 931.6,329.2 931.6,324.4 931.6,319.6 931.7,314.8 931.7,310.0 931.7,305.2 931.7,300.4 931.7,295.6 931.7,290.8 931.7,286.0 931.7,281.2 931.7,276.4 931.7,271.6 931.7,266.8 931.7,262.0 931.7,257.2 931.7,252.4 931.7,247.6 931.7,242.8 931.7,238.0 931.7,233.2 931.7,228.4 931.7,223.6 931.7,218.8 931.7,214.0 931.7,209.2 931.7,204.4 931.7,199.6 931.7,194.8 931.7,190.0 931.7,185.2 931.7,180.4 931.7,175.6 931.7,170.8 931.7,166.0 931.7,161.2 931.7,156.4 931.7,151.6 931.7,146.8 931.7,142.0 931.7,137.2 931.7,132.4 931.7,127.6 931.7,122.8 931.7,118.0 931.7,113.2 931.7,108.4 931.7,103.6 931.7,98.8 931.7,94.0 931.7,89.2 931.7,84.4 931.7,79.6 931.7,74.8 931.7,70.0 931.7,70.0 931.7,74.8 931.7,79.6 931.7,84.4 931.7,89.2 931.7,94.0 931.7,98.8 931.7,103.6 931.7,108.4 931.7,113.2 931.7,118.0 931.7,122.8 931.7,127.6 931.7,132.4 931.7,137.2 931.7,142.0 931.7,146.8 931.7,151.6 931.7,156.4 931.7,161.2 931.7,166.0 931.7,170.8 931.7,175.6 931.7,180.4 931.7,185.2 931.7,190.0 931.7,194.8 931.7,199.6 931.7,204.4 931.7,209.2 931.7,214.0 931.7,218.8 931.7,223.6 931.7,228.4 931.7,233.2 931.7,238.0 931.7,242.8 931.7,247.6 931.7,252.4 931.7,257.2 931.7,262.0 931.7,266.8 931.7,271.6 931.7,276.4 931.7,281.2 931.7,286.0 931.7,290.8 931.7,295.6 931.7,300.4 931.7,305.2 931.7,310.0 931.7,314.8 931.7,319.6 931.7,324.4 931.7,329.2 931.8,334.0 931.8,338.8 931.9,343.6 932.0,348.4 932.1,353.2 932.3,358.0 932.5,362.8 932.8,367.6 933.1,372.4 933.4,377.2 933.8,382.0 934.2,386.8 934.5,391.6 934.9,396.4 935.3,401.2 935.6,406.0 935.8,410.8 936.0,415.6 936.2,420.4 936.3,425.2 936.3,430.0 936.4,434.8 936.4,439.6 936.4,444.4 936.4,449.2 936.4,454.0 936.4,458.8 936.4,463.6 936.4,468.4 936.4,473.2 936.4,478.0 936.2,482.8 936.1,487.6 935.9,492.4 935.6,497.2 935.2,502.0 934.9,506.8 934.5,511.6 934.1,516.4 933.7,521.2 933.3,526.0 933.0,530.8 932.7,535.6 932.4,540.4 932.2,545.2 932.1,550.0" fill="#fdae6b" fill-opacity="0.60" stroke="#b15928" stroke-width="1.2"/>
<line x1="931.7" y1="407.6" x2="931.7" y2="417.8" stroke="#333" stroke-width="1.5"/>
<line x1="931.7" y1="486.8" x2="931.7" y2="490.8" stroke="#333" stroke-width="1.5"/>
<line x1="913.3" y1="407.6" x2="950.0" y2="407.6" stroke="#333" stroke-width="1.5"/>
<line x1="913.3" y1="490.8" x2="950.0" y2="490.8" stroke="#333" stroke-width="1.5"/>
<rect x="913.3" y="417.8" width="36.7" height="69.0" fill="#9ecae1" fill-opacity="0.92" stroke="#1f4e79" stroke-width="1.5"/>
<line x1="913.3" y1="451.6" x2="950.0" y2="451.6" stroke="#111" stroke-width="2"/>
<polygon points="1028.3,550.0 1028.3,545.2 1028.3,540.4 1028.3,535.6 1028.2,530.8 1028.1,526.0 1028.0,521.2 1027.9,516.4 1027.6,511.6 1027.3,506.8 1026.9,502.0 1026.5,497.2 1025.9,492.4 1025.3,487.6 1024.7,482.8 1024.0,478.0 1023.4,473.2 1022.9,468.4 1022.4,463.6 1022.1,458.8 1021.9,454.0 1021.9,449.2 1021.9,444.4 1022.1,439.6 1022.3,434.8 1022.5,430.0 1022.7,425.2 1022.9,420.4 1023.1,415.6 1023.3,410.8 1023.6,406.0 1023.9,401.2 1024.2,396.4 1024.6,391.6 1025.1,386.8 1025.6,382.0 1026.0,377.2 1026.5,372.4 1026.9,367.6 1027.3,362.8 1027.6,358.0 1027.8,353.2 1028.0,348.4 1028.1,343.6 1028.2,338.8 1028.2,334.0 1028.3,329.2 1028.3,324.4 1028.3,319.6 1028.3,314.8 1028.3,310.0 1028.3,305.2 1028.3,300.4 1028.3,295.6 1028.3,290.8 1028.3,286.0 1028.3,281.2 1028.3,276.4 1028.3,271.6 1028.3,266.8 1028.3,262.0 1028.3,257.2 1028.3,252.4 1028.3,247.6 1028.3,242.8 1028.3,238.0 1028.3,233.2 1028.3,228.4 1028.3,223.6 1028.3,218.8 1028.3,214.0 1028.3,209.2 1028.3,204.4 1028.3,199.6 1028.3,194.8 1028.3,190.0 1028.3,185.2 1028.3,180.4 1028.3,175.6 1028.3,170.8 1028.3,166.0 1028.3,161.2 1028.3,156.4 1028.3,151.6 1028.3,146.8 1028.3,142.0 1028.3,137.2 1028.3,132.4 1028.3,127.6 1028.3,122.8 1028.3,118.0 1028.3,113.2 1028.3,108.4 1028.3,103.6 1028.3,98.8 1028.3,94.0 1028.3,89.2 1028.3,84.4 1028.3,79.6 1028.3,74.8 1028.3,70.0 1028.3,70.0 1028.3,74.8 1028.3,79.6 1028.3,84.4 1028.3,89.2 1028.3,94.0 1028.3,98.8 1028.3,103.6 1028.3,108.4 1028.3,113.2 1028.3,118.0 1028.3,122.8 1028.3,127.6 1028.3,132.4 1028.3,137.2 1028.3,142.0 1028.3,146.8 1028.3,151.6 1028.3,156.4 1028.3,161.2 1028.3,166.0 1028.3,170.8 1028.3,175.6 1028.3,180.4 1028.3,185.2 1028.3,190.0 1028.3,194.8 1028.3,199.6 1028.3,204.4 1028.3,209.2 1028.3,214.0 1028.3,218.8 1028.3,223.6 1028.3,228.4 1028.3,233.2 1028.3,238.0 1028.3,242.8 1028.3,247.6 1028.3,252.4 1028.3,257.2 1028.3,262.0 1028.3,266.8 1028.3,271.6 1028.3,276.4 1028.3,281.2 1028.3,286.0 1028.3,290.8 1028.3,295.6 1028.3,300.4 1028.3,305.2 1028.3,310.0 1028.3,314.8 1028.3,319.6 1028.4,324.4 1028.4,329.2 1028.4,334.0 1028.5,338.8 1028.6,343.6 1028.7,348.4 1028.9,353.2 1029.1,358.0 1029.4,362.8 1029.8,367.6 1030.2,372.4 1030.6,377.2 1031.1,382.0 1031.6,386.8 1032.0,391.6 1032.4,396.4 1032.8,401.2 1033.1,406.0 1033.4,410.8 1033.6,415.6 1033.8,420.4 1034.0,425.2 1034.2,430.0 1034.4,434.8 1034.6,439.6 1034.7,444.4 1034.8,449.2 1034.7,454.0 1034.5,458.8 1034.2,463.6 1033.8,468.4 1033.2,473.2 1032.6,478.0 1032.0,482.8 1031.3,487.6 1030.7,492.4 1030.2,497.2 1029.7,502.0 1029.3,506.8 1029.0,511.6 1028.8,516.4 1028.6,521.2 1028.5,526.0 1028.5,530.8 1028.4,535.6 1028.4,540.4 1028.4,545.2 1028.3,550.0" fill="#fdae6b" fill-opacity="0.60" stroke="#b15928" stroke-width="1.2"/>
<line x1="1028.3" y1="395.1" x2="1028.3" y2="414.0" stroke="#333" stroke-width="1.5"/>
<line x1="1028.3" y1="453.6" x2="1028.3" y2="471.9" stroke="#333" stroke-width="1.5"/>
<line x1="1010.0" y1="395.1" x2="1046.7" y2="395.1" stroke="#333" stroke-width="1.5"/>
<line x1="1010.0" y1="471.9" x2="1046.7" y2="471.9" stroke="#333" stroke-width="1.5"/>
<rect x="1010.0" y="414.0" width="36.7" height="39.5" fill="#9ecae1" fill-opacity="0.92" stroke="#1f4e79" stroke-width="1.5"/>
<line x1="1010.0" y1="446.6" x2="1046.7" y2="446.6" stroke="#111" stroke-width="2"/>
<polygon points="1124.2,550.0 1123.9,545.2 1123.5,540.4 1123.1,535.6 1122.6,530.8 1122.2,526.0 1121.7,521.2 1121.3,516.4 1120.9,511.6 1120.6,506.8 1120.3,502.0 1120.0,497.2 1119.6,492.4 1119.2,487.6 1118.7,482.8 1118.2,478.0 1117.7,473.2 1117.3,468.4 1117.1,463.6 1117.1,458.8 1117.4,454.0 1117.9,449.2 1118.7,444.4 1119.7,439.6 1120.7,434.8 1121.7,430.0 1122.6,425.2 1123.3,420.4 1123.9,415.6 1124.3,410.8 1124.6,406.0 1124.8,401.2 1124.9,396.4 1124.9,391.6 1125.0,386.8 1125.0,382.0 1125.0,377.2 1125.0,372.4 1125.0,367.6 1125.0,362.8 1125.0,358.0 1125.0,353.2 1125.0,348.4 1125.0,343.6 1125.0,338.8 1125.0,334.0 1125.0,329.2 1125.0,324.4 1125.0,319.6 1125.0,314.8 1125.0,310.0 1125.0,305.2 1125.0,300.4 1125.0,295.6 1125.0,290.8 1125.0,286.0 1125.0,281.2 1125.0,276.4 1125.0,271.6 1125.0,266.8 1125.0,262.0 1125.0,257.2 1125.0,252.4 1125.0,247.6 1125.0,242.8 1125.0,238.0 1125.0,233.2 1125.0,228.4 1125.0,223.6 1125.0,218.8 1125.0,214.0 1125.0,209.2 1125.0,204.4 1125.0,199.6 1125.0,194.8 1125.0,190.0 1125.0,185.2 1125.0,180.4 1125.0,175.6 1125.0,170.8 1125.0,166.0 1125.0,161.2 1125.0,156.4 1125.0,151.6 1125.0,146.8 1125.0,142.0 1125.0,137.2 1125.0,132.4 1125.0,127.6 1125.0,122.8 1125.0,118.0 1125.0,113.2 1125.0,108.4 1125.0,103.6 1125.0,98.8 1125.0,94.0 1125.0,89.2 1125.0,84.4 1125.0,79.6 1125.0,74.8 1125.0,70.0 1125.0,70.0 1125.0,74.8 1125.0,79.6 1125.0,84.4 1125.0,89.2 1125.0,94.0 1125.0,98.8 1125.0,103.6 1125.0,108.4 1125.0,113.2 1125.0,118.0 1125.0,122.8 1125.0,127.6 1125.0,132.4 1125.0,137.2 1125.0,142.0 1125.0,146.8 1125.0,151.6 1125.0,156.4 1125.0,161.2 1125.0,166.0 1125.0,170.8 1125.0,175.6 1125.0,180.4 1125.0,185.2 1125.0,190.0 1125.0,194.8 1125.0,199.6 1125.0,204.4 1125.0,209.2 1125.0,214.0 1125.0,218.8 1125.0,223.6 1125.0,228.4 1125.0,233.2 1125.0,238.0 1125.0,242.8 1125.0,247.6 1125.0,252.4 1125.0,257.2 1125.0,262.0 1125.0,266.8 1125.0,271.6 1125.0,276.4 1125.0,281.2 1125.0,286.0 1125.0,290.8 1125.0,295.6 1125.0,300.4 1125.0,305.2 1125.0,310.0 1125.0,314.8 1125.0,319.6 1125.0,324.4 1125.0,329.2 1125.0,334.0 1125.0,338.8 1125.0,343.6 1125.0,348.4 1125.0,353.2 1125.0,358.0 1125.0,362.8 1125.0,367.6 1125.0,372.4 1125.0,377.2 1125.0,382.0 1125.0,386.8 1125.1,391.6 1125.1,396.4 1125.2,401.2 1125.4,406.0 1125.7,410.8 1126.1,415.6 1126.7,420.4 1127.4,425.2 1128.3,430.0 1129.3,434.8 1130.3,439.6 1131.3,444.4 1132.1,449.2 1132.6,454.0 1132.9,458.8 1132.9,463.6 1132.7,468.4 1132.3,473.2 1131.8,478.0 1131.3,482.8 1130.8,487.6 1130.4,492.4 1130.0,497.2 1129.7,502.0 1129.4,506.8 1129.1,511.6 1128.7,516.4 1128.3,521.2 1127.8,526.0 1127.4,530.8 1126.9,535.6 1126.5,540.4 1126.1,545.2 1125.8,550.0" fill="#fdae6b" fill-opacity="0.60" stroke="#b15928" stroke-width="1.2"/>
<line x1="1125.0" y1="452.5" x2="1125.0" y2="457.8" stroke="#333" stroke-width="1.5"/>
<line x1="1125.0" y1="490.9" x2="1125.0" y2="516.9" stroke="#333" stroke-width="1.5"/>
<line x1="1106.6" y1="452.5" x2="1143.4" y2="452.5" stroke="#333" stroke-width="1.5"/>
<line x1="1106.6" y1="516.9" x2="1143.4" y2="516.9" stroke="#333" stroke-width="1.5"/>
<rect x="1106.6" y="457.8" width="36.7" height="33.1" fill="#9ecae1" fill-opacity="0.92" stroke="#1f4e79" stroke-width="1.5"/>
<line x1="1106.6" y1="459.8" x2="1143.4" y2="459.8" stroke="#111" stroke-width="2"/>
<polygon points="1221.6,550.0 1221.5,545.2 1221.3,540.4 1221.0,535.6 1220.6,530.8 1220.1,526.0 1219.5,521.2 1218.7,516.4 1218.0,511.6 1217.3,506.8 1216.6,502.0 1216.0,497.2 1215.4,492.4 1214.8,487.6 1214.1,482.8 1213.4,478.0 1212.7,473.2 1212.2,468.4 1211.9,463.6 1212.0,458.8 1212.6,454.0 1213.7,449.2 1215.0,444.4 1216.5,439.6 1217.9,434.8 1219.2,430.0 1220.1,425.2 1220.8,420.4 1221.2,415.6 1221.4,410.8 1221.6,406.0 1221.6,401.2 1221.6,396.4 1221.7,391.6 1221.7,386.8 1221.7,382.0 1221.7,377.2 1221.7,372.4 1221.7,367.6 1221.7,362.8 1221.7,358.0 1221.7,353.2 1221.7,348.4 1221.7,343.6 1221.7,338.8 1221.7,334.0 1221.7,329.2 1221.7,324.4 1221.7,319.6 1221.7,314.8 1221.7,310.0 1221.7,305.2 1221.7,300.4 1221.7,295.6 1221.7,290.8 1221.7,286.0 1221.7,281.2 1221.7,276.4 1221.7,271.6 1221.7,266.8 1221.7,262.0 1221.7,257.2 1221.7,252.4 1221.7,247.6 1221.7,242.8 1221.7,238.0 1221.7,233.2 1221.7,228.4 1221.7,223.6 1221.7,218.8 1221.7,214.0 1221.7,209.2 1221.7,204.4 1221.7,199.6 1221.7,194.8 1221.7,190.0 1221.7,185.2 1221.7,180.4 1221.7,175.6 1221.7,170.8 1221.7,166.0 1221.7,161.2 1221.7,156.4 1221.7,151.6 1221.7,146.8 1221.7,142.0 1221.7,137.2 1221.7,132.4 1221.7,127.6 1221.7,122.8 1221.7,118.0 1221.7,113.2 1221.7,108.4 1221.7,103.6 1221.7,98.8 1221.7,94.0 1221.7,89.2 1221.7,84.4 1221.7,79.6 1221.7,74.8 1221.7,70.0 1221.7,70.0 1221.7,74.8 1221.7,79.6 1221.7,84.4 1221.7,89.2 1221.7,94.0 1221.7,98.8 1221.7,103.6 1221.7,108.4 1221.7,113.2 1221.7,118.0 1221.7,122.8 1221.7,127.6 1221.7,132.4 1221.7,137.2 1221.7,142.0 1221.7,146.8 1221.7,151.6 1221.7,156.4 1221.7,161.2 1221.7,166.0 1221.7,170.8 1221.7,175.6 1221.7,180.4 1221.7,185.2 1221.7,190.0 1221.7,194.8 1221.7,199.6 1221.7,204.4 1221.7,209.2 1221.7,214.0 1221.7,218.8 1221.7,223.6 1221.7,228.4 1221.7,233.2 1221.7,238.0 1221.7,242.8 1221.7,247.6 1221.7,252.4 1221.7,257.2 1221.7,262.0 1221.7,266.8 1221.7,271.6 1221.7,276.4 1221.7,281.2 1221.7,286.0 1221.7,290.8 1221.7,295.6 1221.7,300.4 1221.7,305.2 1221.7,310.0 1221.7,314.8 1221.7,319.6 1221.7,324.4 1221.7,329.2 1221.7,334.0 1221.7,338.8 1221.7,343.6 1221.7,348.4 1221.7,353.2 1221.7,358.0 1221.7,362.8 1221.7,367.6 1221.7,372.4 1221.7,377.2 1221.7,382.0 1221.7,386.8 1221.7,391.6 1221.7,396.4 1221.7,401.2 1221.8,406.0 1221.9,410.8 1222.2,415.6 1222.6,420.4 1223.2,425.2 1224.2,430.0 1225.4,434.8 1226.8,439.6 1228.3,444.4 1229.6,449.2 1230.7,454.0 1231.3,458.8 1231.4,463.6 1231.1,468.4 1230.6,473.2 1229.9,478.0 1229.2,482.8 1228.5,487.6 1227.9,492.4 1227.3,497.2 1226.7,502.0 1226.0,506.8 1225.3,511.6 1224.6,516.4 1223.9,521.2 1223.2,526.0 1222.7,530.8 1222.3,535.6 1222.0,540.4 1221.9,545.2 1221.8,550.0" fill="#fdae6b" fill-opacity="0.60" stroke="#b15928" stroke-width="1.2"/>
<line x1="1221.7" y1="452.6" x2="1221.7" y2="455.7" stroke="#333" stroke-width="1.5"/>
<line x1="1221.7" y1="483.5" x2="1221.7" y2="505.4" stroke="#333" stroke-width="1.5"/>
<line x1="1203.3" y1="452.6" x2="1240.0" y2="452.6" stroke="#333" stroke-width="1.5"/>
<line x1="1203.3" y1="505.4" x2="1240.0" y2="505.4" stroke="#333" stroke-width="1.5"/>
<rect x="1203.3" y="455.7" width="36.7" height="27.9" fill="#9ecae1" fill-opacity="0.92" stroke="#1f4e79" stroke-width="1.5"/>
<line x1="1203.3" y1="466.1" x2="1240.0" y2="466.1" stroke="#111" stroke-width="2"/>
<polygon points="1318.3,550.0 1318.3,545.2 1318.3,540.4 1318.2,535.6 1318.1,530.8 1317.9,526.0 1317.7,521.2 1317.3,516.4 1316.8,511.6 1316.2,506.8 1315.5,502.0 1314.7,497.2 1313.9,492.4 1313.1,487.6 1312.3,482.8 1311.7,478.0 1311.3,473.2 1311.1,468.4 1311.1,463.6 1311.2,458.8 1311.4,454.0 1311.7,449.2 1311.8,444.4 1312.0,439.6 1312.2,434.8 1312.4,430.0 1312.7,425.2 1313.1,420.4 1313.7,415.6 1314.4,410.8 1315.1,406.0 1315.8,401.2 1316.4,396.4 1317.0,391.6 1317.4,386.8 1317.8,382.0 1318.0,377.2 1318.1,372.4 1318.2,367.6 1318.3,362.8 1318.3,358.0 1318.3,353.2 1318.3,348.4 1318.3,343.6 1318.3,338.8 1318.3,334.0 1318.3,329.2 1318.3,324.4 1318.3,319.6 1318.3,314.8 1318.3,310.0 1318.3,305.2 1318.3,300.4 1318.3,295.6 1318.3,290.8 1318.3,286.0 1318.3,281.2 1318.3,276.4 1318.3,271.6 1318.3,266.8 1318.3,262.0 1318.3,257.2 1318.3,252.4 1318.3,247.6 1318.3,242.8 1318.3,238.0 1318.3,233.2 1318.3,228.4 1318.3,223.6 1318.3,218.8 1318.3,214.0 1318.3,209.2 1318.3,204.4 1318.3,199.6 1318.3,194.8 1318.3,190.0 1318.3,185.2 1318.3,180.4 1318.3,175.6 1318.3,170.8 1318.3,166.0 1318.3,161.2 1318.3,156.4 1318.3,151.6 1318.3,146.8 1318.3,142.0 1318.3,137.2 1318.3,132.4 1318.3,127.6 1318.3,122.8 1318.3,118.0 1318.3,113.2 1318.3,108.4 1318.3,103.6 1318.3,98.8 1318.3,94.0 1318.3,89.2 1318.3,84.4 1318.3,79.6 1318.3,74.8 1318.3,70.0 1318.3,70.0 1318.3,74.8 1318.3,79.6 1318.3,84.4 1318.3,89.2 1318.3,94.0 1318.3,98.8 1318.3,103.6 1318.3,108.4 1318.3,113.2 1318.3,118.0 1318.3,122.8 1318.3,127.6 1318.3,132.4 1318.3,137.2 1318.3,142.0 1318.3,146.8 1318.3,151.6 1318.3,156.4 1318.3,161.2 1318.3,166.0 1318.3,170.8 1318.3,175.6 1318.3,180.4 1318.3,185.2 1318.3,190.0 1318.3,194.8 1318.3,199.6 1318.3,204.4 1318.3,209.2 1318.3,214.0 1318.3,218.8 1318.3,223.6 1318.3,228.4 1318.3,233.2 1318.3,238.0 1318.3,242.8 1318.3,247.6 1318.3,252.4 1318.3,257.2 1318.3,262.0 1318.3,266.8 1318.3,271.6 1318.3,276.4 1318.3,281.2 1318.3,286.0 1318.3,290.8 1318.3,295.6 1318.3,300.4 1318.3,305.2 1318.3,310.0 1318.3,314.8 1318.3,319.6 1318.3,324.4 1318.3,329.2 1318.3,334.0 1318.3,338.8 1318.3,343.6 1318.3,348.4 1318.3,353.2 1318.4,358.0 1318.4,362.8 1318.4,367.6 1318.5,372.4 1318.7,377.2 1318.9,382.0 1319.2,386.8 1319.7,391.6 1320.2,396.4 1320.9,401.2 1321.6,406.0 1322.3,410.8 1323.0,415.6 1323.5,420.4 1324.0,425.2 1324.3,430.0 1324.5,434.8 1324.6,439.6 1324.8,444.4 1325.0,449.2 1325.2,454.0 1325.4,458.8 1325.6,463.6 1325.5,468.4 1325.3,473.2 1324.9,478.0 1324.3,482.8 1323.6,487.6 1322.8,492.4 1321.9,497.2 1321.1,502.0 1320.4,506.8 1319.8,511.6 1319.4,516.4 1319.0,521.2 1318.8,526.0 1318.6,530.8 1318.5,535.6 1318.4,540.4 1318.4,545.2 1318.4,550.0" fill="#fdae6b" fill-opacity="0.60" stroke="#b15928" stroke-width="1.2"/>
<line x1="1318.3" y1="422.0" x2="1318.3" y2="428.6" stroke="#333" stroke-width="1.5"/>
<line x1="1318.3" y1="465.7" x2="1318.3" y2="485.3" stroke="#333" stroke-width="1.5"/>
<line x1="1300.0" y1="422.0" x2="1336.7" y2="422.0" stroke="#333" stroke-width="1.5"/>
<line x1="1300.0" y1="485.3" x2="1336.7" y2="485.3" stroke="#333" stroke-width="1.5"/>
<rect x="1300.0" y="428.6" width="36.7" height="37.1" fill="#9ecae1" fill-opacity="0.92" stroke="#1f4e79" stroke-width="1.5"/>
<line x1="1300.0" y1="465.2" x2="1336.7" y2="465.2" stroke="#111" stroke-width="2"/>
<polygon points="1415.0,550.0 1415.0,545.2 1415.0,540.4 1415.0,535.6 1415.0,530.8 1415.0,526.0 1415.0,521.2 1415.0,516.4 1415.0,511.6 1415.0,506.8 1415.0,502.0 1415.0,497.2 1414.9,492.4 1414.8,487.6 1414.6,482.8 1414.2,478.0 1413.6,473.2 1412.7,468.4 1411.7,463.6 1410.6,458.8 1409.5,454.0 1408.6,449.2 1408.0,444.4 1407.6,439.6 1407.4,434.8 1407.0,430.0 1406.4,425.2 1405.8,420.4 1405.2,415.6 1405.0,410.8 1405.4,406.0 1406.4,401.2 1407.9,396.4 1409.5,391.6 1411.2,386.8 1412.5,382.0 1413.5,377.2 1414.2,372.4 1414.6,367.6 1414.8,362.8 1414.9,358.0 1415.0,353.2 1415.0,348.4 1415.0,343.6 1415.0,338.8 1415.0,334.0 1415.0,329.2 1415.0,324.4 1415.0,319.6 1415.0,314.8 1415.0,310.0 1415.0,305.2 1415.0,300.4 1415.0,295.6 1415.0,290.8 1415.0,286.0 1415.0,281.2 1415.0,276.4 1415.0,271.6 1415.0,266.8 1415.0,262.0 1415.0,257.2 1415.0,252.4 1415.0,247.6 1415.0,242.8 1415.0,238.0 1415.0,233.2 1415.0,228.4 1415.0,223.6 1415.0,218.8 1415.0,214.0 1415.0,209.2 1415.0,204.4 1415.0,199.6 1415.0,194.8 1415.0,190.0 1415.0,185.2 1415.0,180.4 1415.0,175.6 1415.0,170.8 1415.0,166.0 1415.0,161.2 1415.0,156.4 1415.0,151.6 1415.0,146.8 1415.0,142.0 1415.0,137.2 1415.0,132.4 1415.0,127.6 1415.0,122.8 1415.0,118.0 1415.0,113.2 1415.0,108.4 1415.0,103.6 1415.0,98.8 1415.0,94.0 1415.0,89.2 1415.0,84.4 1415.0,79.6 1415.0,74.8 1415.0,70.0 1415.0,70.0 1415.0,74.8 1415.0,79.6 1415.0,84.4 1415.0,89.2 1415.0,94.0 1415.0,98.8 1415.0,103.6 1415.0,108.4 1415.0,113.2 1415.0,118.0 1415.0,122.8 1415.0,127.6 1415.0,132.4 1415.0,137.2 1415.0,142.0 1415.0,146.8 1415.0,151.6 1415.0,156.4 1415.0,161.2 1415.0,166.0 1415.0,170.8 1415.0,175.6 1415.0,180.4 1415.0,185.2 1415.0,190.0 1415.0,194.8 1415.0,199.6 1415.0,204.4 1415.0,209.2 1415.0,214.0 1415.0,218.8 1415.0,223.6 1415.0,228.4 1415.0,233.2 1415.0,238.0 1415.0,242.8 1415.0,247.6 1415.0,252.4 1415.0,257.2 1415.0,262.0 1415.0,266.8 1415.0,271.6 1415.0,276.4 1415.0,281.2 1415.0,286.0 1415.0,290.8 1415.0,295.6 1415.0,300.4 1415.0,305.2 1415.0,310.0 1415.0,314.8 1415.0,319.6 1415.0,324.4 1415.0,329.2 1415.0,334.0 1415.0,338.8 1415.0,343.6 1415.0,348.4 1415.0,353.2 1415.1,358.0 1415.2,362.8 1415.4,367.6 1415.8,372.4 1416.5,377.2 1417.5,382.0 1418.8,386.8 1420.5,391.6 1422.1,396.4 1423.6,401.2 1424.6,406.0 1425.0,410.8 1424.8,415.6 1424.2,420.4 1423.6,425.2 1423.0,430.0 1422.6,434.8 1422.4,439.6 1422.0,444.4 1421.4,449.2 1420.5,454.0 1419.4,458.8 1418.3,463.6 1417.3,468.4 1416.4,473.2 1415.8,478.0 1415.4,482.8 1415.2,487.6 1415.1,492.4 1415.0,497.2 1415.0,502.0 1415.0,506.8 1415.0,511.6 1415.0,516.4 1415.0,521.2 1415.0,526.0 1415.0,530.8 1415.0,535.6 1415.0,540.4 1415.0,545.2 1415.0,550.0" fill="#fdae6b" fill-opacity="0.60" stroke="#b15928" stroke-width="1.2"/>
<line x1="1415.0" y1="403.1" x2="1415.0" y2="409.9" stroke="#333" stroke-width="1.5"/>
<line x1="1415.0" y1="440.4" x2="1415.0" y2="449.8" stroke="#333" stroke-width="1.5"/>
<line x1="1396.6" y1="403.1" x2="1433.4" y2="403.1" stroke="#333" stroke-width="1.5"/>
<line x1="1396.6" y1="449.8" x2="1433.4" y2="449.8" stroke="#333" stroke-width="1.5"/>
<rect x="1396.6" y="409.9" width="36.7" height="30.5" fill="#9ecae1" fill-opacity="0.92" stroke="#1f4e79" stroke-width="1.5"/>
<line x1="1396.6" y1="412.7" x2="1433.4" y2="412.7" stroke="#111" stroke-width="2"/>
<polygon points="1511.7,550.0 1511.7,545.2 1511.7,540.4 1511.7,535.6 1511.7,530.8 1511.7,526.0 1511.7,521.2 1511.7,516.4 1511.7,511.6 1511.7,506.8 1511.7,502.0 1511.6,497.2 1511.6,492.4 1511.5,487.6 1511.4,482.8 1511.1,478.0 1510.7,473.2 1510.1,468.4 1509.4,463.6 1508.6,458.8 1507.8,454.0 1507.0,449.2 1506.2,444.4 1505.3,439.6 1504.4,434.8 1503.5,430.0 1502.6,425.2 1501.8,420.4 1501.3,415.6 1501.1,410.8 1501.3,406.0 1502.1,401.2 1503.4,396.4 1505.0,391.6 1506.7,386.8 1508.2,382.0 1509.5,377.2 1510.4,372.4 1511.0,367.6 1511.3,362.8 1511.5,358.0 1511.6,353.2 1511.6,348.4 1511.7,343.6 1511.7,338.8 1511.7,334.0 1511.7,329.2 1511.7,324.4 1511.7,319.6 1511.7,314.8 1511.7,310.0 1511.7,305.2 1511.7,300.4 1511.7,295.6 1511.7,290.8 1511.7,286.0 1511.7,281.2 1511.7,276.4 1511.7,271.6 1511.7,266.8 1511.7,262.0 1511.7,257.2 1511.7,252.4 1511.7,247.6 1511.7,242.8 1511.7,238.0 1511.7,233.2 1511.7,228.4 1511.7,223.6 1511.7,218.8 1511.7,214.0 1511.7,209.2 1511.7,204.4 1511.7,199.6 1511.7,194.8 1511.7,190.0 1511.7,185.2 1511.7,180.4 1511.7,175.6 1511.7,170.8 1511.7,166.0 1511.7,161.2 1511.7,156.4 1511.7,151.6 1511.7,146.8 1511.7,142.0 1511.7,137.2 1511.7,132.4 1511.7,127.6 1511.7,122.8 1511.7,118.0 1511.7,113.2 1511.7,108.4 1511.7,103.6 1511.7,98.8 1511.7,94.0 1511.7,89.2 1511.7,84.4 1511.7,79.6 1511.7,74.8 1511.7,70.0 1511.7,70.0 1511.7,74.8 1511.7,79.6 1511.7,84.4 1511.7,89.2 1511.7,94.0 1511.7,98.8 1511.7,103.6 1511.7,108.4 1511.7,113.2 1511.7,118.0 1511.7,122.8 1511.7,127.6 1511.7,132.4 1511.7,137.2 1511.7,142.0 1511.7,146.8 1511.7,151.6 1511.7,156.4 1511.7,161.2 1511.7,166.0 1511.7,170.8 1511.7,175.6 1511.7,180.4 1511.7,185.2 1511.7,190.0 1511.7,194.8 1511.7,199.6 1511.7,204.4 1511.7,209.2 1511.7,214.0 1511.7,218.8 1511.7,223.6 1511.7,228.4 1511.7,233.2 1511.7,238.0 1511.7,242.8 1511.7,247.6 1511.7,252.4 1511.7,257.2 1511.7,262.0 1511.7,266.8 1511.7,271.6 1511.7,276.4 1511.7,281.2 1511.7,286.0 1511.7,290.8 1511.7,295.6 1511.7,300.4 1511.7,305.2 1511.7,310.0 1511.7,314.8 1511.7,319.6 1511.7,324.4 1511.7,329.2 1511.7,334.0 1511.7,338.8 1511.7,343.6 1511.7,348.4 1511.7,353.2 1511.8,358.0 1512.0,362.8 1512.4,367.6 1513.0,372.4 1513.9,377.2 1515.1,382.0 1516.7,386.8 1518.4,391.6 1519.9,396.4 1521.2,401.2 1522.0,406.0 1522.3,410.8 1522.1,415.6 1521.5,420.4 1520.8,425.2 1519.9,430.0 1518.9,434.8 1518.0,439.6 1517.2,444.4 1516.3,449.2 1515.5,454.0 1514.7,458.8 1513.9,463.6 1513.2,468.4 1512.6,473.2 1512.2,478.0 1512.0,482.8 1511.8,487.6 1511.7,492.4 1511.7,497.2 1511.7,502.0 1511.7,506.8 1511.7,511.6 1511.7,516.4 1511.7,521.2 1511.7,526.0 1511.7,530.8 1511.7,535.6 1511.7,540.4 1511.7,545.2 1511.7,550.0" fill="#fdae6b" fill-opacity="0.60" stroke="#b15928" stroke-width="1.2"/>
<line x1="1511.7" y1="395.4" x2="1511.7" y2="406.3" stroke="#333" stroke-width="1.5"/>
<line x1="1511.7" y1="427.9" x2="1511.7" y2="450.8" stroke="#333" stroke-width="1.5"/>
<line x1="1493.3" y1="395.4" x2="1530.0" y2="395.4" stroke="#333" stroke-width="1.5"/>
<line x1="1493.3" y1="450.8" x2="1530.0" y2="450.8" stroke="#333" stroke-width="1.5"/>
<rect x="1493.3" y="406.3" width="36.7" height="21.6" fill="#9ecae1" fill-opacity="0.92" stroke="#1f4e79" stroke-width="1.5"/>
<line x1="1493.3" y1="414.3" x2="1530.0" y2="414.3" stroke="#111" stroke-width="2"/>
</svg>